<svg width="1498" height="514" viewBox="0 0 1498 514" fill="none" xmlns="http://www.w3.org/2000/svg">
<rect x="8" y="9" width="484" height="484" rx="42" fill="#262626" stroke="#A8CB34" stroke-width="16"/>
<path d="M342.218 211.566L191.112 280.661L40 211.566L191.112 133.922L342.218 211.566Z" stroke="#A8CB34" stroke-width="12" stroke-linecap="round" stroke-linejoin="round"/>
<path d="M191.048 299.908L92.4556 254.825V351.829C92.4556 361.666 136.755 388.578 191.048 388.578C245.342 388.578 289.057 361.666 289.057 351.829V255.089L191.048 299.908Z" stroke="#A8CB34" stroke-width="12" stroke-linecap="round" stroke-linejoin="round"/>
<path d="M66.8689 242.958V310.985" stroke="#A8CB34" stroke-width="12" stroke-linecap="round"/>
<path d="M454.081 216.538L451.625 222.012L451.625 222.012L454.081 216.538ZM454.081 287.827L451.625 282.353H451.625L454.081 287.827ZM416.933 300.585L422.898 299.943V299.943L416.933 300.585ZM425.239 317.909L420.996 322.151L420.996 322.151L425.239 317.909ZM426.157 318.827L421.915 323.07L426.157 318.827ZM435.681 336.735L430.079 334.586V334.586L435.681 336.735ZM403.206 372.964L407.445 377.211L407.449 377.207L403.206 372.964ZM339.332 401.642L341.774 407.123H341.774L339.332 401.642ZM271.348 398.373L265.872 400.824L265.872 400.824L271.348 398.373ZM265.922 371.102L263.233 365.738L258.233 368.245L260.383 373.408L265.922 371.102ZM289.27 341.31L291.03 335.574L283.27 333.193V341.31H289.27ZM307.734 344.393V350.393H307.76L307.786 350.393L307.734 344.393ZM373.37 316.701L369.109 312.477L373.37 316.701ZM373.37 184.95L369.109 189.174L373.37 184.95ZM307.734 157.258L307.786 151.258L307.76 151.258H307.734V157.258ZM265.605 171.812L262.863 177.149L265.867 178.693L268.746 176.924L265.605 171.812ZM203.279 139.787L199.035 135.545L193.219 141.363L200.537 145.123L203.279 139.787ZM209.618 133.445L213.862 137.687L213.869 137.68L209.618 133.445ZM227.462 123.886L229.611 118.284H229.611L227.462 123.886ZM240.74 133.417L236.493 137.656L236.497 137.659L240.74 133.417ZM241.231 133.908L245.478 129.669L245.474 129.666L241.231 133.908ZM274.618 100.657L272.162 95.1826V95.1826L274.618 100.657ZM342.602 103.927L337.123 106.372L342.602 103.927ZM372.377 132.085L376.616 136.331L376.616 136.331L372.377 132.085ZM389.971 122.86L387.816 128.46L387.816 128.46L389.971 122.86ZM403.256 132.391L407.499 128.148L407.495 128.145L403.256 132.391ZM426.207 155.342L430.454 151.103L430.45 151.099L426.207 155.342ZM435.731 173.25L441.339 175.383L441.339 175.383L435.731 173.25ZM426.257 186.478L422.015 182.235V182.235L426.257 186.478ZM419.547 207.477L415.747 212.12L419.547 207.477ZM456.536 211.063C454.19 210.011 450.948 209.249 447.872 208.744C444.682 208.221 441.134 207.888 437.946 207.888V219.888C440.379 219.888 443.27 220.15 445.929 220.586C448.7 221.041 450.716 221.604 451.625 222.012L456.536 211.063ZM466 235.934C466 232.453 465.22 227.424 464.053 223.111C463.463 220.932 462.707 218.68 461.77 216.762C461.301 215.803 460.716 214.778 459.982 213.846C459.288 212.966 458.172 211.797 456.536 211.063L451.625 222.012C450.802 221.643 450.482 221.179 450.557 221.274C450.592 221.318 450.749 221.539 450.988 222.029C451.465 223.007 451.986 224.461 452.469 226.246C453.448 229.863 454 233.803 454 235.934H466ZM466 268.431V235.934H454V268.431H466ZM456.536 293.302C458.172 292.568 459.288 291.399 459.982 290.519C460.716 289.587 461.301 288.562 461.77 287.603C462.707 285.685 463.463 283.433 464.053 281.253C465.22 276.94 466 271.912 466 268.431H454C454 270.562 453.448 274.502 452.469 278.119C451.986 279.904 451.465 281.358 450.988 282.336C450.749 282.826 450.592 283.047 450.557 283.09C450.482 283.186 450.802 282.722 451.625 282.353L456.536 293.302ZM437.946 296.477C441.134 296.477 444.682 296.144 447.872 295.62C450.948 295.116 454.19 294.354 456.536 293.302L451.625 282.353C450.716 282.76 448.7 283.324 445.929 283.779C443.27 284.215 440.379 284.477 437.946 284.477V296.477ZM436.564 296.477H437.946V284.477H436.564V296.477ZM422.898 299.943C423.061 301.457 422.087 301.898 422.921 301.164C423.621 300.548 424.92 299.756 426.779 298.961C430.574 297.338 434.81 296.477 436.564 296.477V284.477C432.705 284.477 426.827 285.889 422.059 287.928C419.637 288.965 417.044 290.352 414.996 292.153C413.083 293.836 410.505 296.931 410.967 301.226L422.898 299.943ZM429.481 313.666C428.123 312.308 426.55 309.999 425.232 307.251C423.914 304.501 423.102 301.837 422.898 299.943L410.967 301.226C411.362 304.896 412.72 308.91 414.412 312.44C416.106 315.97 418.386 319.541 420.996 322.151L429.481 313.666ZM430.4 314.585L429.481 313.666L420.996 322.151L421.915 323.07L430.4 314.585ZM441.283 338.884C441.929 337.202 441.888 335.58 441.757 334.472C441.617 333.296 441.307 332.159 440.961 331.152C440.268 329.135 439.212 327.008 438.089 325.048C435.869 321.171 432.866 317.051 430.4 314.585L421.915 323.07C423.417 324.572 425.81 327.753 427.676 331.012C428.597 332.619 429.257 334.019 429.611 335.05C429.789 335.566 429.834 335.833 429.841 335.887C429.855 336.009 429.751 335.442 430.079 334.586L441.283 338.884ZM430.4 354.256C432.656 352 434.928 349.246 436.81 346.62C438.625 344.085 440.371 341.261 441.283 338.884L430.079 334.586C429.723 335.514 428.692 337.345 427.054 339.632C425.482 341.826 423.627 344.059 421.915 345.77L430.4 354.256ZM407.449 377.207L430.4 354.256L421.915 345.77L398.964 368.721L407.449 377.207ZM383.155 388.099C384.833 388.741 386.451 388.704 387.565 388.573C388.744 388.434 389.884 388.123 390.894 387.776C392.914 387.082 395.041 386.024 397 384.899C400.877 382.673 404.983 379.668 407.445 377.211L398.968 368.718C397.455 370.227 394.274 372.626 391.024 374.492C389.42 375.414 388.023 376.074 386.995 376.427C386.48 376.604 386.214 376.649 386.16 376.655C386.041 376.67 386.598 376.568 387.442 376.891L383.155 388.099ZM368.123 377.552C370.294 379.726 372.963 381.917 375.527 383.737C378.011 385.5 380.784 387.192 383.155 388.099L387.442 376.891C386.479 376.523 384.675 375.515 382.472 373.951C380.349 372.445 378.221 370.682 376.617 369.074L368.123 377.552ZM356.306 370.702C355.392 371.819 354.46 371.466 355.534 371.526C356.45 371.578 357.901 371.918 359.742 372.641C363.514 374.124 367.001 376.428 368.123 377.552L376.617 369.074C373.963 366.416 368.878 363.338 364.131 361.473C361.711 360.522 358.916 359.697 356.205 359.545C353.653 359.402 349.714 359.809 347.019 363.102L356.306 370.702ZM351.252 383.635C351.252 382.208 351.716 379.873 352.727 377.223C353.722 374.616 355.037 372.253 356.306 370.702L347.019 363.102C344.727 365.904 342.836 369.485 341.516 372.945C340.212 376.362 339.252 380.218 339.252 383.635H351.252ZM341.774 407.123C343.352 406.42 344.454 405.318 345.16 404.457C345.901 403.555 346.495 402.565 346.971 401.638C347.921 399.788 348.686 397.634 349.28 395.574C350.449 391.525 351.252 386.801 351.252 383.635H339.252C339.252 385.313 338.726 388.865 337.751 392.246C337.273 393.901 336.762 395.249 336.297 396.155C336.065 396.607 335.915 396.807 335.886 396.842C335.823 396.92 336.128 396.501 336.891 396.161L341.774 407.123ZM323.198 410.292C326.388 410.292 329.935 409.957 333.123 409.432C336.201 408.926 339.433 408.166 341.774 407.123L336.891 396.161C335.969 396.572 333.944 397.136 331.176 397.592C328.517 398.029 325.629 398.292 323.198 398.292V410.292ZM290.745 410.292H323.198V398.292H290.745V410.292ZM265.872 400.824C266.605 402.461 267.772 403.578 268.654 404.274C269.586 405.009 270.611 405.596 271.571 406.064C273.491 407.003 275.743 407.758 277.923 408.348C282.237 409.514 287.265 410.292 290.745 410.292V398.292C288.612 398.292 284.671 397.741 281.055 396.764C279.27 396.281 277.817 395.761 276.84 395.283C276.351 395.044 276.131 394.888 276.088 394.854C275.994 394.779 276.457 395.1 276.825 395.921L265.872 400.824ZM262.698 382.566C262.698 385.669 263.034 389.141 263.558 392.273C264.065 395.3 264.828 398.491 265.872 400.824L276.825 395.921C276.408 394.991 275.846 392.993 275.393 390.29C274.958 387.691 274.698 384.891 274.698 382.566H262.698ZM260.383 373.408C261.917 377.093 262.698 381.005 262.698 382.566H274.698C274.698 378.897 273.363 373.363 271.461 368.795L260.383 373.408ZM283.27 351.552C283.27 350.808 283.559 350.875 282.791 351.948C282.118 352.888 280.951 354.154 279.168 355.673C275.621 358.697 270.225 362.232 263.233 365.738L268.611 376.465C276.191 372.664 282.469 368.628 286.953 364.806C289.186 362.902 291.123 360.926 292.551 358.929C293.885 357.065 295.27 354.499 295.27 351.552H283.27ZM283.27 341.31V351.552H295.27V341.31H283.27ZM307.734 338.393C302.476 338.393 296.814 337.348 291.03 335.574L287.511 347.046C294.066 349.057 300.951 350.393 307.734 350.393V338.393ZM369.109 312.477C352.851 328.877 330.773 338.191 307.681 338.393L307.786 350.393C334.042 350.163 359.145 339.572 377.631 320.925L369.109 312.477ZM394.488 250.826C394.488 273.918 385.367 296.076 369.109 312.477L377.631 320.925C396.117 302.277 406.488 277.083 406.488 250.826H394.488ZM369.109 189.174C385.366 205.574 394.488 227.733 394.488 250.826H406.488C406.488 224.568 396.117 199.374 377.631 180.726L369.109 189.174ZM307.681 163.258C330.773 163.459 352.851 172.774 369.109 189.174L377.631 180.726C359.145 162.079 334.042 151.488 307.786 151.258L307.681 163.258ZM268.746 176.924C281.209 169.267 295.141 163.258 307.734 163.258V151.258C291.778 151.258 275.517 158.68 262.464 166.7L268.746 176.924ZM200.537 145.123L262.863 177.149L268.347 166.475L206.021 134.45L200.537 145.123ZM205.375 129.203L199.035 135.545L207.522 144.029L213.862 137.687L205.375 129.203ZM229.611 118.284C227.923 117.636 226.297 117.68 225.187 117.814C224.009 117.957 222.871 118.271 221.865 118.621C219.851 119.32 217.73 120.384 215.776 121.512C211.912 123.745 207.813 126.756 205.368 129.21L213.869 137.68C215.362 136.181 218.533 133.778 221.779 131.903C223.381 130.977 224.776 130.313 225.802 129.957C226.316 129.778 226.579 129.733 226.629 129.727C226.747 129.713 226.175 129.818 225.313 129.488L229.611 118.284ZM244.986 129.178C242.729 126.917 239.974 124.642 237.347 122.759C234.812 120.943 231.988 119.196 229.611 118.284L225.313 129.488C226.241 129.844 228.072 130.875 230.357 132.513C232.551 134.085 234.782 135.942 236.493 137.656L244.986 129.178ZM245.474 129.666L244.982 129.174L236.497 137.659L236.989 138.151L245.474 129.666ZM257.644 136.868C258.588 135.715 259.555 136.092 258.443 136.019C257.506 135.958 256.024 135.596 254.147 134.841C250.315 133.301 246.716 130.91 245.478 129.669L236.985 138.147C239.707 140.875 244.855 144.039 249.671 145.975C252.118 146.959 254.935 147.815 257.66 147.993C260.212 148.16 264.206 147.798 266.931 144.468L257.644 136.868ZM262.698 122.54C262.698 124.469 262.18 127.218 261.169 130.086C260.157 132.958 258.846 135.4 257.644 136.868L266.931 144.468C269.29 141.585 271.184 137.772 272.488 134.073C273.792 130.37 274.698 126.23 274.698 122.54H262.698ZM262.698 120.054V122.54H274.698V120.054H262.698ZM272.162 95.1826C270.526 95.9166 269.41 97.0853 268.717 97.9653C267.982 98.8968 267.397 99.9219 266.928 100.881C265.991 102.799 265.236 105.051 264.646 107.231C263.479 111.544 262.698 116.572 262.698 120.054H274.698C274.698 117.922 275.25 113.982 276.229 110.365C276.712 108.58 277.233 107.126 277.711 106.148C277.95 105.659 278.106 105.438 278.141 105.394C278.216 105.298 277.896 105.763 277.073 106.131L272.162 95.1826ZM290.745 92C287.558 92 284.01 92.3353 280.822 92.8607C277.745 93.3677 274.506 94.1311 272.162 95.1826L277.073 106.131C277.985 105.723 280.003 105.158 282.773 104.701C285.43 104.263 288.318 104 290.745 104V92ZM323.198 92H290.745V104H323.198V92ZM348.081 101.481C347.349 99.8404 346.179 98.7222 345.299 98.0277C344.368 97.2924 343.342 96.7062 342.383 96.2372C340.465 95.2989 338.213 94.5422 336.032 93.9513C331.717 92.7823 326.684 92 323.198 92V104C325.332 104 329.275 104.553 332.894 105.534C334.68 106.018 336.134 106.539 337.111 107.017C337.601 107.256 337.821 107.413 337.864 107.447C337.958 107.521 337.492 107.199 337.123 106.372L348.081 101.481ZM351.252 120.054C351.252 116.867 350.917 113.32 350.392 110.132C349.886 107.056 349.125 103.821 348.081 101.481L337.123 106.372C337.532 107.288 338.096 109.309 338.551 112.08C338.989 114.738 339.252 117.627 339.252 120.054H351.252ZM351.252 120.417V120.054H339.252V120.417H351.252ZM354.717 134.119C356.242 133.954 356.686 134.938 355.947 134.096C355.329 133.392 354.536 132.088 353.74 130.223C352.114 126.417 351.252 122.171 351.252 120.417H339.252C339.252 124.276 340.665 130.163 342.704 134.937C343.74 137.362 345.127 139.959 346.926 142.009C348.603 143.922 351.699 146.513 356.002 146.05L354.717 134.119ZM368.138 127.838C366.884 129.09 364.672 130.585 361.972 131.854C359.284 133.118 356.639 133.912 354.717 134.119L356.002 146.05C359.637 145.658 363.598 144.35 367.079 142.713C370.548 141.082 374.066 138.876 376.616 136.331L368.138 127.838ZM392.127 117.261C390.464 116.621 388.86 116.648 387.75 116.772C386.578 116.904 385.445 117.206 384.442 117.544C382.437 118.22 380.331 119.255 378.398 120.352C374.579 122.518 370.531 125.45 368.138 127.838L376.616 136.331C378.027 134.923 381.119 132.605 384.319 130.789C385.895 129.895 387.267 129.256 388.277 128.915C388.782 128.745 389.041 128.703 389.091 128.697C389.203 128.684 388.651 128.781 387.816 128.46L392.127 117.261ZM407.495 128.145C405.238 125.892 402.486 123.621 399.861 121.739C397.326 119.923 394.504 118.176 392.127 117.261L387.816 128.46C388.751 128.819 390.584 129.854 392.87 131.493C395.065 133.066 397.3 134.923 399.017 136.637L407.495 128.145ZM430.45 151.099L407.499 128.148L399.014 136.634L421.965 159.585L430.45 151.099ZM441.339 175.383C441.976 173.707 441.939 172.093 441.807 170.981C441.668 169.804 441.357 168.665 441.011 167.656C440.317 165.637 439.261 163.511 438.137 161.552C435.915 157.675 432.913 153.567 430.454 151.103L421.961 159.581C423.469 161.092 425.863 164.27 427.728 167.521C428.648 169.126 429.307 170.523 429.661 171.553C429.838 172.068 429.884 172.336 429.89 172.392C429.905 172.513 429.803 171.959 430.123 171.117L441.339 175.383ZM430.5 190.72C432.739 188.481 434.999 185.748 436.874 183.131C438.682 180.606 440.427 177.782 441.339 175.383L430.123 171.117C429.768 172.051 428.744 173.872 427.118 176.143C425.557 178.322 423.714 180.535 422.015 182.235L430.5 190.72ZM423.347 202.834C424.495 203.773 424.122 204.735 424.193 203.632C424.253 202.699 424.612 201.223 425.362 199.352C426.893 195.533 429.273 191.947 430.5 190.72L422.015 182.235C419.302 184.947 416.151 190.081 414.224 194.886C413.245 197.327 412.393 200.14 412.218 202.863C412.054 205.415 412.423 209.4 415.747 212.12L423.347 202.834ZM437.669 207.888C435.743 207.888 432.997 207.37 430.129 206.359C427.258 205.347 424.816 204.036 423.347 202.834L415.747 212.12C418.631 214.48 422.443 216.374 426.141 217.677C429.843 218.982 433.981 219.888 437.669 219.888V207.888ZM437.946 207.888H437.669V219.888H437.946V207.888Z" fill="#A8CB34"/>
<path d="M608 51.52C625.76 51.52 641.28 55.04 654.56 62.08C667.84 69.12 678.08 79.04 685.28 91.84C692.64 104.48 696.32 119.12 696.32 135.76C696.32 152.24 692.64 166.88 685.28 179.68C678.08 192.48 667.76 202.4 654.32 209.44C641.04 216.48 625.6 220 608 220H544.88V51.52H608ZM605.36 184.48C620.88 184.48 632.96 180.24 641.6 171.76C650.24 163.28 654.56 151.28 654.56 135.76C654.56 120.24 650.24 108.16 641.6 99.52C632.96 90.88 620.88 86.56 605.36 86.56H585.92V184.48H605.36ZM760.295 51.52V220H719.255V51.52H760.295ZM850.996 221.68C838.676 221.68 827.636 219.68 817.876 215.68C808.116 211.68 800.276 205.76 794.356 197.92C788.596 190.08 785.556 180.64 785.236 169.6H828.916C829.556 175.84 831.716 180.64 835.396 184C839.076 187.2 843.876 188.8 849.796 188.8C855.876 188.8 860.676 187.44 864.196 184.72C867.716 181.84 869.476 177.92 869.476 172.96C869.476 168.8 868.036 165.36 865.156 162.64C862.436 159.92 858.996 157.68 854.836 155.92C850.836 154.16 845.076 152.16 837.556 149.92C826.676 146.56 817.796 143.2 810.916 139.84C804.036 136.48 798.116 131.52 793.156 124.96C788.196 118.4 785.716 109.84 785.716 99.28C785.716 83.6 791.396 71.36 802.756 62.56C814.116 53.6 828.916 49.12 847.156 49.12C865.716 49.12 880.676 53.6 892.036 62.56C903.396 71.36 909.476 83.68 910.276 99.52H865.876C865.556 94.08 863.556 89.84 859.876 86.8C856.196 83.6 851.476 82 845.716 82C840.756 82 836.756 83.36 833.716 86.08C830.676 88.64 829.156 92.4 829.156 97.36C829.156 102.8 831.716 107.04 836.836 110.08C841.956 113.12 849.956 116.4 860.836 119.92C871.716 123.6 880.516 127.12 887.236 130.48C894.116 133.84 900.036 138.72 904.996 145.12C909.956 151.52 912.436 159.76 912.436 169.84C912.436 179.44 909.956 188.16 904.996 196C900.196 203.84 893.156 210.08 883.876 214.72C874.596 219.36 863.636 221.68 850.996 221.68ZM998.653 221.68C986.333 221.68 975.293 219.68 965.533 215.68C955.773 211.68 947.933 205.76 942.013 197.92C936.253 190.08 933.213 180.64 932.893 169.6H976.573C977.213 175.84 979.373 180.64 983.053 184C986.733 187.2 991.533 188.8 997.453 188.8C1003.53 188.8 1008.33 187.44 1011.85 184.72C1015.37 181.84 1017.13 177.92 1017.13 172.96C1017.13 168.8 1015.69 165.36 1012.81 162.64C1010.09 159.92 1006.65 157.68 1002.49 155.92C998.493 154.16 992.733 152.16 985.213 149.92C974.333 146.56 965.453 143.2 958.573 139.84C951.693 136.48 945.773 131.52 940.813 124.96C935.853 118.4 933.373 109.84 933.373 99.28C933.373 83.6 939.053 71.36 950.413 62.56C961.773 53.6 976.573 49.12 994.813 49.12C1013.37 49.12 1028.33 53.6 1039.69 62.56C1051.05 71.36 1057.13 83.68 1057.93 99.52H1013.53C1013.21 94.08 1011.21 89.84 1007.53 86.8C1003.85 83.6 999.133 82 993.372 82C988.413 82 984.413 83.36 981.373 86.08C978.333 88.64 976.813 92.4 976.813 97.36C976.813 102.8 979.373 107.04 984.492 110.08C989.613 113.12 997.613 116.4 1008.49 119.92C1019.37 123.6 1028.17 127.12 1034.89 130.48C1041.77 133.84 1047.69 138.72 1052.65 145.12C1057.61 151.52 1060.09 159.76 1060.09 169.84C1060.09 179.44 1057.61 188.16 1052.65 196C1047.85 203.84 1040.81 210.08 1031.53 214.72C1022.25 219.36 1011.29 221.68 998.653 221.68ZM1126.39 84.4V118.48H1181.35V150.16H1126.39V187.12H1188.55V220H1085.35V51.52H1188.55V84.4H1126.39ZM1301.11 220L1266.07 156.4H1256.23V220H1215.19V51.52H1284.07C1297.35 51.52 1308.63 53.84 1317.91 58.48C1327.35 63.12 1334.39 69.52 1339.03 77.68C1343.67 85.68 1345.99 94.64 1345.99 104.56C1345.99 115.76 1342.79 125.76 1336.39 134.56C1330.15 143.36 1320.87 149.6 1308.55 153.28L1347.43 220H1301.11ZM1256.23 127.36H1281.67C1289.19 127.36 1294.79 125.52 1298.47 121.84C1302.31 118.16 1304.23 112.96 1304.23 106.24C1304.23 99.84 1302.31 94.8 1298.47 91.12C1294.79 87.44 1289.19 85.6 1281.67 85.6H1256.23V127.36ZM666.08 279.52V312.4H621.44V448H580.4V312.4H535.76V279.52H666.08ZM791.557 418.24H728.677L718.597 448H675.637L736.597 279.52H784.117L845.077 448H801.637L791.557 418.24ZM780.997 386.56L760.117 324.88L739.477 386.56H780.997ZM940.91 412C948.75 412 955.71 410.16 961.79 406.48C968.03 402.8 972.83 397.44 976.19 390.4H1021.31C1016.99 406.56 1008.91 419.76 997.07 430C985.39 440.08 971.15 446.24 954.35 448.48V457.84C962.67 457.84 969.95 460.08 976.19 464.56C982.43 469.2 985.55 476.08 985.55 485.2C985.55 494.32 982.27 501.2 975.71 505.84C969.15 510.64 961.31 513.04 952.19 513.04H915.23V490.48H946.67C949.87 490.48 952.27 490 953.87 489.04C955.47 488.08 956.27 486.48 956.27 484.24C956.27 482 955.47 480.4 953.87 479.44C952.27 478.64 949.87 478.24 946.67 478.24H929.63V448.48C915.23 446.88 902.51 442.32 891.47 434.8C880.43 427.12 871.87 417.12 865.79 404.8C859.71 392.48 856.67 378.72 856.67 363.52C856.67 346.88 860.27 332.08 867.47 319.12C874.67 306 884.67 295.84 897.47 288.64C910.43 281.28 925.07 277.6 941.39 277.6C961.39 277.6 978.51 282.88 992.75 293.44C1006.99 304 1016.51 318.4 1021.31 336.64H976.19C972.83 329.6 968.03 324.24 961.79 320.56C955.71 316.88 948.75 315.04 940.91 315.04C928.27 315.04 918.03 319.44 910.19 328.24C902.35 337.04 898.43 348.8 898.43 363.52C898.43 378.24 902.35 390 910.19 398.8C918.03 407.6 928.27 412 940.91 412ZM1126.12 449.68C1110.28 449.68 1095.72 446 1082.44 438.64C1069.32 431.28 1058.84 421.04 1051 407.92C1043.32 394.64 1039.48 379.76 1039.48 363.28C1039.48 346.8 1043.32 332 1051 318.88C1058.84 305.76 1069.32 295.52 1082.44 288.16C1095.72 280.8 1110.28 277.12 1126.12 277.12C1141.96 277.12 1156.44 280.8 1169.56 288.16C1182.84 295.52 1193.24 305.76 1200.76 318.88C1208.44 332 1212.28 346.8 1212.28 363.28C1212.28 379.76 1208.44 394.64 1200.76 407.92C1193.08 421.04 1182.68 431.28 1169.56 438.64C1156.44 446 1141.96 449.68 1126.12 449.68ZM1126.12 412.24C1139.56 412.24 1150.28 407.76 1158.28 398.8C1166.44 389.84 1170.52 378 1170.52 363.28C1170.52 348.4 1166.44 336.56 1158.28 327.76C1150.28 318.8 1139.56 314.32 1126.12 314.32C1112.52 314.32 1101.64 318.72 1093.48 327.52C1085.48 336.32 1081.48 348.24 1081.48 363.28C1081.48 378.16 1085.48 390.08 1093.48 399.04C1101.64 407.84 1112.52 412.24 1126.12 412.24ZM1077.88 267.76C1081.72 244.08 1092.76 232.24 1111 232.24C1114.52 232.24 1117.56 232.8 1120.12 233.92C1122.84 234.88 1126.12 236.4 1129.96 238.48C1132.84 240.08 1135.16 241.28 1136.92 242.08C1138.68 242.72 1140.52 243.04 1142.44 243.04C1148.36 243.04 1151.8 239.44 1152.76 232.24H1173.88C1170.04 255.92 1159 267.76 1140.76 267.76C1137.24 267.76 1134.12 267.28 1131.4 266.32C1128.84 265.2 1125.64 263.6 1121.8 261.52C1118.92 259.92 1116.6 258.8 1114.84 258.16C1113.08 257.36 1111.24 256.96 1109.32 256.96C1103.4 256.96 1099.88 260.56 1098.76 267.76H1077.88ZM1276.15 312.4V346.48H1331.11V378.16H1276.15V415.12H1338.31V448H1235.11V279.52H1338.31V312.4H1276.15ZM1425.92 449.68C1413.6 449.68 1402.56 447.68 1392.8 443.68C1383.04 439.68 1375.2 433.76 1369.28 425.92C1363.52 418.08 1360.48 408.64 1360.16 397.6H1403.84C1404.48 403.84 1406.64 408.64 1410.32 412C1414 415.2 1418.8 416.8 1424.72 416.8C1430.8 416.8 1435.6 415.44 1439.12 412.72C1442.64 409.84 1444.4 405.92 1444.4 400.96C1444.4 396.8 1442.96 393.36 1440.08 390.64C1437.36 387.92 1433.92 385.68 1429.76 383.92C1425.76 382.16 1420 380.16 1412.48 377.92C1401.6 374.56 1392.72 371.2 1385.84 367.84C1378.96 364.48 1373.04 359.52 1368.08 352.96C1363.12 346.4 1360.64 337.84 1360.64 327.28C1360.64 311.6 1366.32 299.36 1377.68 290.56C1389.04 281.6 1403.84 277.12 1422.08 277.12C1440.64 277.12 1455.6 281.6 1466.96 290.56C1478.32 299.36 1484.4 311.68 1485.2 327.52H1440.8C1440.48 322.08 1438.48 317.84 1434.8 314.8C1431.12 311.6 1426.4 310 1420.64 310C1415.68 310 1411.68 311.36 1408.64 314.08C1405.6 316.64 1404.08 320.4 1404.08 325.36C1404.08 330.8 1406.64 335.04 1411.76 338.08C1416.88 341.12 1424.88 344.4 1435.76 347.92C1446.64 351.6 1455.44 355.12 1462.16 358.48C1469.04 361.84 1474.96 366.72 1479.92 373.12C1484.88 379.52 1487.36 387.76 1487.36 397.84C1487.36 407.44 1484.88 416.16 1479.92 424C1475.12 431.84 1468.08 438.08 1458.8 442.72C1449.52 447.36 1438.56 449.68 1425.92 449.68Z" fill="#F6F6F6"/>
</svg>
