<svg width="500" height="500" viewBox="0 0 500 500" fill="none" xmlns="http://www.w3.org/2000/svg">
<rect x="8" y="8" width="484" height="484" rx="42" fill="#3C3C3C" stroke="#A8CB34" stroke-width="16"/>
<path d="M342.218 210.566L191.112 279.661L40 210.566L191.112 132.922L342.218 210.566Z" stroke="#A8CB34" stroke-width="12" stroke-linecap="round" stroke-linejoin="round"/>
<path d="M191.048 298.908L92.4555 253.825V350.829C92.4555 360.666 136.755 387.578 191.048 387.578C245.342 387.578 289.057 360.666 289.057 350.829V254.089L191.048 298.908Z" stroke="#A8CB34" stroke-width="12" stroke-linecap="round" stroke-linejoin="round"/>
<path d="M66.8688 241.958V309.985" stroke="#A8CB34" stroke-width="12" stroke-linecap="round"/>
<path d="M454.081 215.538L451.625 221.012L451.625 221.012L454.081 215.538ZM454.081 286.827L451.625 281.353H451.625L454.081 286.827ZM416.933 299.585L422.898 298.943V298.943L416.933 299.585ZM425.239 316.909L420.996 321.151V321.151L425.239 316.909ZM426.158 317.827L421.915 322.07H421.915L426.158 317.827ZM435.681 335.735L430.079 333.586L430.079 333.586L435.681 335.735ZM403.206 371.964L407.445 376.211L407.449 376.207L403.206 371.964ZM339.332 400.642L341.774 406.123H341.774L339.332 400.642ZM271.348 397.373L265.872 399.824L265.872 399.824L271.348 397.373ZM265.922 370.102L263.233 364.738L258.233 367.245L260.383 372.408L265.922 370.102ZM289.27 340.31L291.03 334.574L283.27 332.193V340.31H289.27ZM307.734 343.393V349.393H307.76L307.786 349.393L307.734 343.393ZM373.37 315.701L369.109 311.477L373.37 315.701ZM373.37 183.95L369.109 188.174L373.37 183.95ZM307.734 156.258L307.786 150.258L307.76 150.258H307.734V156.258ZM265.605 170.812L262.863 176.149L265.867 177.693L268.746 175.924L265.605 170.812ZM203.279 138.787L199.036 134.545L193.219 140.363L200.537 144.123L203.279 138.787ZM209.618 132.445L213.862 136.687L213.869 136.68L209.618 132.445ZM227.462 122.886L229.611 117.284H229.611L227.462 122.886ZM240.74 132.417L236.493 136.656L236.497 136.659L240.74 132.417ZM241.231 132.908L245.478 128.669L245.474 128.666L241.231 132.908ZM274.618 99.657L272.162 94.1826L272.162 94.1826L274.618 99.657ZM342.602 102.927L337.123 105.372L342.602 102.927ZM372.377 131.085L376.616 135.331V135.331L372.377 131.085ZM389.971 121.86L387.816 127.46V127.46L389.971 121.86ZM403.256 131.391L407.499 127.148L407.495 127.145L403.256 131.391ZM426.207 154.342L430.454 150.103L430.45 150.099L426.207 154.342ZM435.731 172.25L441.339 174.383V174.383L435.731 172.25ZM426.257 185.478L422.015 181.235L422.015 181.235L426.257 185.478ZM419.547 206.477L415.747 211.12H415.747L419.547 206.477ZM456.536 210.063C454.19 209.011 450.948 208.249 447.872 207.744C444.682 207.221 441.134 206.888 437.946 206.888V218.888C440.379 218.888 443.27 219.15 445.929 219.586C448.7 220.041 450.716 220.604 451.625 221.012L456.536 210.063ZM466 234.934C466 231.453 465.22 226.424 464.053 222.111C463.463 219.932 462.707 217.68 461.77 215.762C461.301 214.803 460.716 213.778 459.982 212.846C459.288 211.966 458.173 210.797 456.536 210.063L451.625 221.012C450.802 220.643 450.482 220.179 450.557 220.274C450.592 220.318 450.749 220.539 450.988 221.029C451.466 222.007 451.986 223.461 452.469 225.246C453.448 228.863 454 232.803 454 234.934H466ZM466 267.431V234.934H454V267.431H466ZM456.536 292.302C458.173 291.568 459.288 290.399 459.982 289.519C460.716 288.587 461.301 287.562 461.77 286.603C462.707 284.685 463.463 282.433 464.053 280.253C465.22 275.94 466 270.912 466 267.431H454C454 269.562 453.448 273.502 452.469 277.119C451.986 278.904 451.466 280.358 450.988 281.336C450.749 281.826 450.592 282.047 450.557 282.09C450.482 282.186 450.802 281.722 451.625 281.353L456.536 292.302ZM437.946 295.477C441.134 295.477 444.682 295.144 447.872 294.62C450.948 294.116 454.19 293.354 456.536 292.302L451.625 281.353C450.716 281.76 448.7 282.324 445.929 282.779C443.27 283.215 440.379 283.477 437.946 283.477V295.477ZM436.565 295.477H437.946V283.477H436.565V295.477ZM422.898 298.943C423.061 300.457 422.087 300.898 422.921 300.164C423.621 299.548 424.92 298.756 426.779 297.961C430.574 296.338 434.811 295.477 436.565 295.477V283.477C432.705 283.477 426.827 284.889 422.059 286.928C419.637 287.965 417.044 289.352 414.996 291.153C413.083 292.836 410.505 295.931 410.967 300.226L422.898 298.943ZM429.481 312.666C428.124 311.308 426.55 308.999 425.232 306.251C423.914 303.501 423.102 300.837 422.898 298.943L410.967 300.226C411.362 303.896 412.72 307.91 414.412 311.44C416.106 314.97 418.386 318.541 420.996 321.151L429.481 312.666ZM430.4 313.585L429.481 312.666L420.996 321.151L421.915 322.07L430.4 313.585ZM441.283 337.884C441.929 336.202 441.889 334.58 441.757 333.472C441.617 332.296 441.307 331.159 440.961 330.152C440.268 328.135 439.212 326.008 438.089 324.048C435.869 320.171 432.866 316.051 430.4 313.585L421.915 322.07C423.417 323.572 425.81 326.753 427.676 330.012C428.597 331.619 429.257 333.019 429.611 334.05C429.789 334.566 429.834 334.833 429.841 334.887C429.855 335.009 429.751 334.442 430.079 333.586L441.283 337.884ZM430.4 353.256C432.656 351 434.928 348.246 436.81 345.62C438.625 343.085 440.371 340.261 441.283 337.884L430.079 333.586C429.723 334.514 428.692 336.345 427.054 338.632C425.482 340.826 423.627 343.059 421.915 344.77L430.4 353.256ZM407.449 376.207L430.4 353.256L421.915 344.77L398.964 367.721L407.449 376.207ZM383.155 387.099C384.833 387.741 386.451 387.704 387.565 387.573C388.744 387.434 389.884 387.123 390.894 386.776C392.914 386.082 395.041 385.024 397 383.899C400.877 381.673 404.983 378.668 407.445 376.211L398.968 367.718C397.455 369.227 394.275 371.626 391.024 373.492C389.42 374.414 388.024 375.074 386.995 375.427C386.48 375.604 386.214 375.649 386.16 375.655C386.041 375.67 386.598 375.568 387.442 375.891L383.155 387.099ZM368.123 376.552C370.294 378.726 372.963 380.917 375.527 382.737C378.011 384.5 380.784 386.192 383.155 387.099L387.442 375.891C386.479 375.523 384.676 374.515 382.473 372.951C380.349 371.445 378.221 369.682 376.617 368.074L368.123 376.552ZM356.306 369.702C355.392 370.819 354.46 370.466 355.535 370.526C356.45 370.578 357.901 370.918 359.742 371.641C363.514 373.124 367.001 375.428 368.123 376.552L376.617 368.074C373.963 365.416 368.878 362.338 364.131 360.473C361.711 359.522 358.916 358.697 356.205 358.545C353.653 358.402 349.714 358.809 347.019 362.102L356.306 369.702ZM351.252 382.635C351.252 381.208 351.716 378.873 352.727 376.223C353.722 373.616 355.037 371.253 356.306 369.702L347.019 362.102C344.727 364.904 342.836 368.485 341.516 371.945C340.212 375.362 339.252 379.218 339.252 382.635H351.252ZM341.774 406.123C343.352 405.42 344.454 404.318 345.161 403.457C345.901 402.555 346.495 401.565 346.971 400.638C347.921 398.788 348.686 396.634 349.28 394.574C350.449 390.525 351.252 385.801 351.252 382.635H339.252C339.252 384.313 338.726 387.865 337.751 391.246C337.273 392.901 336.762 394.249 336.297 395.155C336.065 395.607 335.915 395.807 335.886 395.842C335.823 395.92 336.128 395.501 336.891 395.161L341.774 406.123ZM323.198 409.292C326.388 409.292 329.935 408.957 333.123 408.432C336.201 407.926 339.433 407.166 341.774 406.123L336.891 395.161C335.969 395.572 333.945 396.136 331.176 396.592C328.517 397.029 325.629 397.292 323.198 397.292V409.292ZM290.745 409.292H323.198V397.292H290.745V409.292ZM265.872 399.824C266.605 401.461 267.772 402.578 268.654 403.274C269.586 404.009 270.612 404.596 271.571 405.064C273.491 406.003 275.743 406.758 277.923 407.348C282.237 408.514 287.265 409.292 290.745 409.292V397.292C288.612 397.292 284.671 396.741 281.055 395.764C279.27 395.281 277.817 394.761 276.84 394.283C276.351 394.044 276.131 393.888 276.088 393.854C275.994 393.779 276.457 394.1 276.825 394.921L265.872 399.824ZM262.698 381.566C262.698 384.669 263.034 388.141 263.558 391.273C264.065 394.3 264.828 397.491 265.872 399.824L276.825 394.921C276.408 393.991 275.846 391.993 275.393 389.29C274.958 386.691 274.698 383.891 274.698 381.566H262.698ZM260.383 372.408C261.917 376.093 262.698 380.005 262.698 381.566H274.698C274.698 377.897 273.363 372.363 271.461 367.795L260.383 372.408ZM283.27 350.552C283.27 349.808 283.559 349.875 282.791 350.948C282.119 351.888 280.951 353.154 279.168 354.673C275.621 357.697 270.225 361.232 263.233 364.738L268.611 375.465C276.191 371.664 282.469 367.628 286.953 363.806C289.186 361.902 291.123 359.926 292.551 357.929C293.885 356.065 295.27 353.499 295.27 350.552H283.27ZM283.27 340.31V350.552H295.27V340.31H283.27ZM307.734 337.393C302.476 337.393 296.814 336.348 291.03 334.574L287.511 346.046C294.066 348.057 300.951 349.393 307.734 349.393V337.393ZM369.109 311.477C352.851 327.877 330.773 337.191 307.681 337.393L307.786 349.393C334.042 349.163 359.145 338.572 377.631 319.925L369.109 311.477ZM394.488 249.826C394.488 272.918 385.367 295.076 369.109 311.477L377.631 319.925C396.117 301.277 406.488 276.083 406.488 249.826H394.488ZM369.109 188.174C385.367 204.574 394.488 226.733 394.488 249.826H406.488C406.488 223.568 396.117 198.374 377.631 179.726L369.109 188.174ZM307.681 162.258C330.773 162.459 352.851 171.774 369.109 188.174L377.631 179.726C359.145 161.079 334.042 150.488 307.786 150.258L307.681 162.258ZM268.746 175.924C281.209 168.267 295.141 162.258 307.734 162.258V150.258C291.778 150.258 275.517 157.68 262.464 165.7L268.746 175.924ZM200.537 144.123L262.863 176.149L268.347 165.475L206.021 133.45L200.537 144.123ZM205.375 128.203L199.036 134.545L207.522 143.029L213.862 136.687L205.375 128.203ZM229.611 117.284C227.923 116.636 226.297 116.68 225.187 116.814C224.009 116.957 222.871 117.271 221.865 117.621C219.851 118.32 217.73 119.384 215.776 120.512C211.912 122.745 207.813 125.756 205.368 128.21L213.869 136.68C215.362 135.181 218.533 132.778 221.779 130.903C223.381 129.977 224.776 129.313 225.802 128.957C226.316 128.778 226.579 128.733 226.629 128.727C226.747 128.713 226.175 128.818 225.313 128.488L229.611 117.284ZM244.986 128.178C242.729 125.917 239.974 123.642 237.347 121.759C234.812 119.943 231.988 118.196 229.611 117.284L225.313 128.488C226.241 128.844 228.072 129.875 230.357 131.513C232.551 133.085 234.782 134.942 236.493 136.656L244.986 128.178ZM245.474 128.666L244.982 128.174L236.497 136.659L236.989 137.151L245.474 128.666ZM257.644 135.868C258.588 134.715 259.555 135.092 258.443 135.019C257.506 134.958 256.024 134.596 254.147 133.841C250.315 132.301 246.716 129.91 245.478 128.669L236.985 137.147C239.707 139.875 244.855 143.039 249.671 144.975C252.118 145.959 254.935 146.815 257.66 146.993C260.212 147.16 264.206 146.798 266.931 143.468L257.644 135.868ZM262.698 121.54C262.698 123.469 262.18 126.218 261.169 129.086C260.158 131.958 258.846 134.4 257.644 135.868L266.931 143.468C269.291 140.585 271.185 136.772 272.488 133.073C273.792 129.37 274.698 125.23 274.698 121.54H262.698ZM262.698 119.054V121.54H274.698V119.054H262.698ZM272.162 94.1826C270.526 94.9166 269.41 96.0853 268.717 96.9653C267.982 97.8968 267.397 98.9219 266.928 99.8808C265.991 101.799 265.236 104.051 264.646 106.231C263.479 110.544 262.698 115.572 262.698 119.054H274.698C274.698 116.922 275.25 112.982 276.229 109.365C276.712 107.58 277.233 106.126 277.711 105.148C277.95 104.659 278.106 104.438 278.141 104.394C278.216 104.298 277.896 104.763 277.073 105.131L272.162 94.1826ZM290.745 91C287.558 91 284.01 91.3353 280.822 91.8607C277.745 92.3677 274.506 93.1311 272.162 94.1826L277.073 105.131C277.985 104.723 280.003 104.158 282.773 103.701C285.43 103.263 288.318 103 290.745 103V91ZM323.198 91H290.745V103H323.198V91ZM348.081 100.481C347.349 98.8404 346.179 97.7222 345.299 97.0277C344.368 96.2924 343.342 95.7062 342.383 95.2372C340.465 94.2989 338.213 93.5422 336.032 92.9513C331.717 91.7823 326.684 91 323.198 91V103C325.332 103 329.275 103.553 332.894 104.534C334.68 105.018 336.134 105.539 337.111 106.017C337.601 106.256 337.821 106.413 337.864 106.447C337.959 106.521 337.492 106.199 337.123 105.372L348.081 100.481ZM351.252 119.054C351.252 115.867 350.917 112.32 350.392 109.132C349.886 106.056 349.125 102.821 348.081 100.481L337.123 105.372C337.532 106.288 338.096 108.309 338.551 111.08C338.989 113.738 339.252 116.627 339.252 119.054H351.252ZM351.252 119.417V119.054H339.252V119.417H351.252ZM354.717 133.119C356.243 132.954 356.686 133.938 355.947 133.096C355.33 132.392 354.536 131.088 353.74 129.223C352.114 125.417 351.252 121.171 351.252 119.417H339.252C339.252 123.276 340.665 129.163 342.704 133.937C343.74 136.362 345.127 138.959 346.926 141.009C348.603 142.922 351.699 145.513 356.002 145.05L354.717 133.119ZM368.138 126.838C366.884 128.09 364.672 129.585 361.972 130.854C359.284 132.118 356.639 132.912 354.717 133.119L356.002 145.05C359.637 144.658 363.598 143.35 367.079 141.713C370.548 140.082 374.066 137.876 376.616 135.331L368.138 126.838ZM392.127 116.261C390.464 115.621 388.86 115.648 387.75 115.772C386.578 115.904 385.445 116.206 384.442 116.544C382.437 117.22 380.331 118.255 378.398 119.352C374.579 121.518 370.531 124.45 368.138 126.838L376.616 135.331C378.027 133.923 381.12 131.605 384.319 129.789C385.895 128.895 387.267 128.256 388.277 127.915C388.782 127.745 389.041 127.703 389.091 127.697C389.203 127.684 388.651 127.781 387.816 127.46L392.127 116.261ZM407.495 127.145C405.238 124.892 402.486 122.621 399.861 120.739C397.326 118.923 394.504 117.176 392.127 116.261L387.816 127.46C388.751 127.819 390.584 128.854 392.87 130.493C395.065 132.066 397.3 133.923 399.018 135.637L407.495 127.145ZM430.45 150.099L407.499 127.148L399.014 135.634L421.965 158.585L430.45 150.099ZM441.339 174.383C441.976 172.707 441.939 171.093 441.807 169.981C441.668 168.804 441.357 167.665 441.011 166.656C440.318 164.637 439.261 162.511 438.137 160.552C435.915 156.675 432.913 152.567 430.454 150.103L421.961 158.581C423.469 160.092 425.864 163.27 427.728 166.521C428.648 168.126 429.307 169.523 429.661 170.553C429.838 171.068 429.884 171.336 429.89 171.392C429.905 171.513 429.803 170.959 430.123 170.117L441.339 174.383ZM430.5 189.72C432.739 187.481 434.999 184.748 436.874 182.131C438.682 179.606 440.427 176.782 441.339 174.383L430.123 170.117C429.768 171.051 428.745 172.872 427.118 175.143C425.557 177.322 423.714 179.535 422.015 181.235L430.5 189.72ZM423.347 201.834C424.495 202.773 424.122 203.735 424.193 202.632C424.253 201.699 424.612 200.223 425.362 198.352C426.893 194.533 429.273 190.947 430.5 189.72L422.015 181.235C419.302 183.947 416.151 189.081 414.224 193.886C413.245 196.327 412.393 199.14 412.218 201.863C412.054 204.415 412.423 208.4 415.747 211.12L423.347 201.834ZM437.669 206.888C435.743 206.888 432.997 206.37 430.129 205.359C427.258 204.347 424.816 203.036 423.347 201.834L415.747 211.12C418.631 213.48 422.443 215.374 426.141 216.677C429.843 217.982 433.981 218.888 437.669 218.888V206.888ZM437.946 206.888H437.669V218.888H437.946V206.888Z" fill="#A8CB34"/>
</svg>
