<svg width="261" height="119" viewBox="0 0 261 119" fill="none" xmlns="http://www.w3.org/2000/svg">
<rect x="2" y="21" width="96" height="96" rx="13" fill="#262626" stroke="#A8CB34" stroke-width="4"/>
<path d="M68.4435 61.1131L38.2225 74.9322L8 61.1131L38.2225 45.5845L68.4435 61.1131Z" stroke="#A8CB34" stroke-width="3" stroke-linecap="round" stroke-linejoin="round"/>
<path d="M38.2097 78.7816L18.4912 69.765V89.1659C18.4912 91.1333 27.3511 96.5156 38.2097 96.5156C49.0684 96.5156 57.8115 91.1333 57.8115 89.1659V69.8177L38.2097 78.7816Z" stroke="#A8CB34" stroke-width="3" stroke-linecap="round" stroke-linejoin="round"/>
<path d="M13.3738 67.3916V80.997" stroke="#A8CB34" stroke-width="3" stroke-linecap="round"/>
<path d="M90.8161 62.1076L90.2022 63.4762L90.2022 63.4762L90.8161 62.1076ZM90.8161 76.3655L90.2022 74.9968H90.2022L90.8161 76.3655ZM85.0477 82.3817L83.9871 83.4424L83.9871 83.4424L85.0477 82.3817ZM85.2315 82.5655L86.2922 81.5048L86.2921 81.5048L85.2315 82.5655ZM87.1362 86.1471L85.7358 85.6098L85.7358 85.6098L87.1362 86.1471ZM80.6413 93.3928L81.701 94.4544L81.702 94.4535L80.6413 93.3928ZM77.0597 95.299L76.5239 96.7L76.5239 96.7L77.0597 95.299ZM74.474 93.4626L73.4123 94.5223L73.4123 94.5223L74.474 93.4626ZM70.3325 92.1805L71.4934 93.1304L71.4934 93.1304L70.3325 92.1805ZM54.2696 98.4745L55.6387 97.8617L54.2696 98.4745ZM53.1844 93.0203L52.512 91.6795L51.2622 92.3062L51.7997 93.597L53.1844 93.0203ZM57.854 87.062L58.294 85.6279L56.354 85.0328V87.062H57.854ZM61.5467 87.6786V89.1786L61.5598 89.1785L61.5467 87.6786ZM74.674 82.1402L73.6087 81.0842L74.674 82.1402ZM74.674 55.7901L73.6087 56.8461L74.674 55.7901ZM61.5467 50.2517L61.5598 48.7517H61.5467V50.2517ZM53.1209 53.1624L52.4354 54.4966L53.1866 54.8826L53.9061 54.4405L53.1209 53.1624ZM40.6558 46.7574L39.5949 45.6969L38.1408 47.1515L39.9702 48.0915L40.6558 46.7574ZM41.9236 45.4891L42.9845 46.5496L42.9862 46.5478L41.9236 45.4891ZM45.4924 43.5772L44.9551 44.9777L44.9551 44.9777L45.4924 43.5772ZM48.1479 45.4834L47.0863 46.5431L47.0873 46.544L48.1479 45.4834ZM48.2462 45.5817L49.3078 44.522L49.3069 44.521L48.2462 45.5817ZM52.4575 46.9337L53.6183 47.8836V47.8836L52.4575 46.9337ZM54.9236 38.9314L54.3096 37.5628L54.3096 37.5628L54.9236 38.9314ZM68.5204 39.5853L67.1507 40.1968V40.1968L68.5204 39.5853ZM71.0719 46.8168L71.2325 48.3082H71.2325L71.0719 46.8168ZM77.9943 43.372L77.4554 44.7719V44.7719L77.9943 43.372ZM80.6513 45.2782L81.7119 44.2176L81.711 44.2166L80.6513 45.2782ZM85.2415 49.8684L86.3031 48.8087L86.3021 48.8078L85.2415 49.8684ZM83.9094 60.2954L84.8594 59.1346L84.8594 59.1346L83.9094 60.2954ZM91.43 60.739C90.9248 60.5124 90.2459 60.3551 89.623 60.2529C88.9717 60.146 88.2456 60.0776 87.5893 60.0776V63.0776C88.057 63.0776 88.6188 63.1282 89.1371 63.2133C89.6839 63.303 90.0563 63.4108 90.2022 63.4762L91.43 60.739ZM93.5 65.9869C93.5 65.2568 93.3383 64.224 93.1001 63.344C92.9795 62.8981 92.8225 62.4279 92.6235 62.0207C92.5241 61.8171 92.3963 61.592 92.232 61.3835C92.0778 61.1879 91.8188 60.9133 91.43 60.739L90.2022 63.4762C89.9762 63.3748 89.8763 63.2412 89.8759 63.2406C89.8653 63.2272 89.8859 63.2513 89.928 63.3375C90.0121 63.5096 90.1103 63.7805 90.2043 64.1276C90.3953 64.8336 90.5 65.5943 90.5 65.9869H93.5ZM93.5 72.4861V65.9869H90.5V72.4861H93.5ZM91.43 77.7341C91.8188 77.5597 92.0778 77.2851 92.232 77.0895C92.3963 76.881 92.5241 76.6559 92.6235 76.4524C92.8225 76.0451 92.9795 75.5749 93.1001 75.1291C93.3383 74.2491 93.5 73.2162 93.5 72.4861H90.5C90.5 72.8787 90.3953 73.6394 90.2043 74.3454C90.1103 74.6926 90.0121 74.9635 89.928 75.1356C89.8859 75.2217 89.8653 75.2458 89.8759 75.2324C89.8763 75.2319 89.9762 75.0982 90.2022 74.9968L91.43 77.7341ZM87.5893 78.3954C88.2456 78.3954 88.9717 78.327 89.623 78.2201C90.2459 78.1179 90.9248 77.9607 91.43 77.7341L90.2022 74.9968C90.0563 75.0623 89.6839 75.17 89.1371 75.2598C88.6188 75.3448 88.057 75.3954 87.5893 75.3954V78.3954ZM87.3129 78.3954H87.5893V75.3954H87.3129V78.3954ZM84.878 78.7566C84.9262 79.2046 84.6425 79.3811 84.7824 79.2581C84.8886 79.1646 85.1161 79.0211 85.4739 78.868C86.2085 78.5538 87.0147 78.3954 87.3129 78.3954V75.3954C86.4885 75.3954 85.2717 75.6915 84.2939 76.1099C83.7954 76.3231 83.2443 76.6155 82.8011 77.0054C82.3914 77.3657 81.7872 78.073 81.8952 79.0774L84.878 78.7566ZM86.1084 81.3211C85.8681 81.0808 85.5712 80.6505 85.317 80.1204C85.0626 79.59 84.9139 79.091 84.878 78.7566L81.8952 79.0774C81.9789 79.8557 82.2641 80.6923 82.6119 81.4177C82.96 82.1434 83.4338 82.8891 83.9871 83.4424L86.1084 81.3211ZM86.2921 81.5048L86.1084 81.3211L83.9871 83.4424L84.1708 83.6262L86.2921 81.5048ZM88.5367 86.6843C88.6902 86.2844 88.6785 85.9053 88.6493 85.6591C88.6181 85.3959 88.5493 85.1466 88.4758 84.9329C88.3288 84.5049 88.1078 84.0614 87.8782 83.6605C87.4252 82.8696 86.8094 82.0221 86.2922 81.5048L84.1708 83.6262C84.4471 83.9025 84.9105 84.5152 85.2749 85.1515C85.454 85.4641 85.5762 85.7259 85.6386 85.9075C85.6698 85.9985 85.6723 86.03 85.6702 86.0128C85.6702 86.0125 85.6457 85.8445 85.7358 85.6098L88.5367 86.6843ZM86.2922 89.8633C86.7569 89.3985 87.2218 88.8347 87.6058 88.2986C87.9733 87.7856 88.3405 87.196 88.5367 86.6843L85.7358 85.6098C85.6785 85.7592 85.49 86.1006 85.1669 86.5517C84.8603 86.9798 84.4996 87.4132 84.1708 87.742L86.2922 89.8633ZM81.702 94.4535L86.2922 89.8633L84.1708 87.742L79.5806 92.3322L81.702 94.4535ZM76.5239 96.7C76.9225 96.8525 77.3004 96.8418 77.5481 96.8125C77.812 96.7814 78.0619 96.7126 78.2762 96.639C78.7051 96.4916 79.1487 96.27 79.5494 96.0399C80.3404 95.5857 81.1848 94.9697 81.701 94.4544L79.5816 92.3312C79.3028 92.6095 78.6898 93.0741 78.0555 93.4383C77.7434 93.6175 77.4824 93.7395 77.3015 93.8017C77.2109 93.8328 77.1795 93.8352 77.1968 93.8332C77.1979 93.8331 77.3637 93.8093 77.5956 93.898L76.5239 96.7ZM73.4123 94.5223C73.8606 94.9714 74.408 95.4203 74.9318 95.7921C75.4357 96.1497 76.0145 96.5052 76.5239 96.7L77.5956 93.898C77.4382 93.8378 77.1017 93.6534 76.6681 93.3456C76.2545 93.0521 75.8425 92.7104 75.5356 92.403L73.4123 94.5223ZM71.4934 93.1304C71.2203 93.4642 70.9122 93.3949 71.0901 93.4048C71.2283 93.4126 71.485 93.4686 71.8386 93.6075C72.1757 93.74 72.5261 93.9182 72.8294 94.1026C73.1485 94.2965 73.3437 94.4536 73.4123 94.5223L75.5356 92.403C74.9667 91.833 73.9097 91.1981 72.9359 90.8154C72.4375 90.6195 71.8449 90.4424 71.2578 90.4095C70.7104 90.3789 69.801 90.4615 69.1717 91.2305L71.4934 93.1304ZM70.5504 95.527C70.5504 95.2913 70.6308 94.8625 70.8258 94.3516C71.0166 93.8515 71.2652 93.4093 71.4934 93.1304L69.1717 91.2305C68.6876 91.8221 68.2951 92.5688 68.0229 93.2821C67.7548 93.9846 67.5504 94.7939 67.5504 95.527H70.5504ZM68.4768 100.499C68.851 100.332 69.1066 100.073 69.264 99.8819C69.4299 99.6798 69.5597 99.4619 69.661 99.2648C69.8632 98.8711 70.0224 98.4201 70.1443 97.9979C70.3828 97.1716 70.5504 96.1973 70.5504 95.527H67.5504C67.5504 95.8253 67.4522 96.5066 67.2619 97.1661C67.1693 97.4868 67.0734 97.7364 66.9925 97.8939C66.9522 97.9724 66.9334 97.9927 66.9454 97.9781C66.9488 97.974 67.045 97.8523 67.2562 97.7582L68.4768 100.499ZM64.6397 101.158C65.2966 101.158 66.0226 101.09 66.6734 100.983C67.2966 100.88 67.9732 100.723 68.4768 100.499L67.2562 97.7582C67.1072 97.8246 66.7325 97.9325 66.1864 98.0223C65.668 98.1076 65.1068 98.1584 64.6397 98.1584V101.158ZM58.149 101.158H64.6397V98.1584H58.149V101.158ZM52.9005 99.0874C53.0746 99.4763 53.349 99.7356 53.5449 99.8902C53.7535 100.055 53.9788 100.183 54.1825 100.282C54.59 100.482 55.0604 100.639 55.5063 100.759C56.3866 100.997 57.4193 101.158 58.149 101.158V98.1584C57.756 98.1584 56.9951 98.054 56.2893 97.8632C55.9423 97.7693 55.6716 97.6711 55.4998 97.5871C55.4138 97.5451 55.3898 97.5246 55.4034 97.5353C55.4042 97.5359 55.5377 97.6359 55.6387 97.8617L52.9005 99.0874ZM52.2397 95.3133C52.2397 95.9534 52.3086 96.6646 52.4157 97.3041C52.5185 97.9178 52.676 98.5858 52.9005 99.0874L55.6387 97.8617C55.5712 97.7108 55.4637 97.341 55.3745 96.8085C55.2897 96.3019 55.2397 95.7587 55.2397 95.3133H52.2397ZM51.7997 93.597C51.9376 93.9283 52.0524 94.2929 52.1313 94.6259C52.2142 94.9758 52.2397 95.2159 52.2397 95.3133H55.2397C55.2397 94.5267 54.9587 93.3793 54.5691 92.4437L51.7997 93.597ZM56.354 89.1103C56.354 88.8693 56.4536 88.8202 56.3142 89.015C56.1986 89.1767 55.9842 89.4121 55.639 89.7064C54.953 90.2912 53.8957 90.9857 52.512 91.6795L53.8568 94.3612C55.3874 93.5937 56.665 92.7739 57.5852 91.9894C58.0431 91.5991 58.4497 91.1861 58.7543 90.7604C59.0351 90.3678 59.354 89.7922 59.354 89.1103H56.354ZM56.354 87.062V89.1103H59.354V87.062H56.354ZM61.5467 86.1786C60.5334 86.1786 59.4316 85.9769 58.294 85.6279L57.4141 88.496C58.7445 88.9041 60.152 89.1786 61.5467 89.1786V86.1786ZM73.6087 81.0842C70.4128 84.308 66.0729 86.139 61.5336 86.1786L61.5598 89.1785C66.8902 89.132 71.9864 86.9819 75.7393 83.1962L73.6087 81.0842ZM78.5976 68.9651C78.5976 73.5046 76.8046 77.8603 73.6087 81.0842L75.7393 83.1962C79.4921 79.4105 81.5976 74.2957 81.5976 68.9651H78.5976ZM73.6087 56.8461C76.8046 60.0699 78.5976 64.4257 78.5976 68.9651H81.5976C81.5976 63.6345 79.4921 58.5197 75.7393 54.734L73.6087 56.8461ZM61.5336 51.7516C66.0729 51.7912 70.4128 53.6222 73.6087 56.8461L75.7393 54.734C71.9864 50.9483 66.8902 48.7982 61.5598 48.7517L61.5336 51.7516ZM53.9061 54.4405C56.3841 52.9181 59.1122 51.7517 61.5467 51.7517V48.7517C58.2714 48.7517 54.9612 50.2713 52.3357 51.8843L53.9061 54.4405ZM39.9702 48.0915L52.4354 54.4966L53.8065 51.8282L41.3413 45.4232L39.9702 48.0915ZM40.8628 44.4286L39.5949 45.6969L41.7166 47.8178L42.9845 46.5496L40.8628 44.4286ZM46.0296 42.1767C45.6283 42.0227 45.2481 42.0351 45.0012 42.065C44.7375 42.0969 44.4881 42.1666 44.2746 42.2408C43.8471 42.3892 43.4046 42.6119 43.0052 42.8427C42.2168 43.2982 41.374 43.9156 40.8611 44.4303L42.9862 46.5478C43.2612 46.2719 43.8722 45.8065 44.506 45.4403C44.8176 45.2603 45.0783 45.1374 45.2588 45.0747C45.3493 45.0433 45.3801 45.041 45.3619 45.0432C45.3606 45.0434 45.1912 45.0682 44.9551 44.9777L46.0296 42.1767ZM49.2095 44.4237C48.7445 43.9578 48.1804 43.4923 47.6442 43.108C47.131 42.7402 46.5414 42.373 46.0296 42.1767L44.9551 44.9777C45.1045 45.035 45.4458 45.2234 45.8967 45.5465C46.3246 45.8532 46.7578 46.214 47.0863 46.5431L49.2095 44.4237ZM49.3069 44.521L49.2086 44.4227L47.0873 46.544L47.1856 46.6423L49.3069 44.521ZM51.2966 45.9837C51.5771 45.6409 51.8946 45.7166 51.7082 45.7044C51.5655 45.6951 51.3024 45.6351 50.9412 45.4899C50.1996 45.1918 49.5183 44.7328 49.3078 44.522L47.1846 46.6414C47.7663 47.2241 48.8345 47.8763 49.8223 48.2734C50.326 48.4759 50.9226 48.6595 51.5125 48.698C52.0588 48.7338 52.9817 48.6616 53.6183 47.8836L51.2966 45.9837ZM52.2397 43.3079C52.2397 43.6498 52.1456 44.1648 51.9509 44.7175C51.7558 45.2713 51.5081 45.7253 51.2966 45.9837L53.6183 47.8836C54.1192 47.2716 54.5126 46.4747 54.7805 45.7143C55.0488 44.9527 55.2397 44.0901 55.2397 43.3079H52.2397ZM52.2397 42.8107V43.3079H55.2397V42.8107H52.2397ZM54.3096 37.5628C53.9209 37.7372 53.6619 38.0117 53.5077 38.2074C53.3434 38.4159 53.2156 38.641 53.1161 38.8445C52.9172 39.2517 52.7602 39.7219 52.6395 40.1678C52.4014 41.0478 52.2397 42.0807 52.2397 42.8107H55.2397C55.2397 42.4182 55.3443 41.6574 55.5354 40.9514C55.6293 40.6043 55.7276 40.3334 55.8117 40.1613C55.8538 40.0752 55.8744 40.051 55.8638 40.0645C55.8634 40.065 55.7634 40.1987 55.5375 40.3L54.3096 37.5628ZM58.149 36.9C57.4927 36.9 56.7666 36.9689 56.1155 37.0762C55.4926 37.1788 54.8142 37.3365 54.3096 37.5628L55.5375 40.3C55.6839 40.2343 56.0569 40.1263 56.6033 40.0362C57.1215 39.9508 57.6826 39.9 58.149 39.9V36.9ZM64.6397 36.9H58.149V39.9H64.6397V36.9ZM69.8901 38.9739C69.7161 38.5841 69.4413 38.3245 69.2457 38.1701C69.0372 38.0055 68.812 37.8775 68.6085 37.778C68.2012 37.5788 67.7309 37.4216 67.2848 37.3007C66.4044 37.0622 65.3707 36.9 64.6397 36.9V39.9C65.0326 39.9 65.794 40.005 66.5003 40.1963C66.8476 40.2904 67.1185 40.3888 67.2905 40.473C67.3766 40.5151 67.4005 40.5356 67.3869 40.5249C67.3862 40.5243 67.252 40.4238 67.1507 40.1968L69.8901 38.9739ZM70.5504 42.8107C70.5504 42.1545 70.4815 41.4285 70.3745 40.7777C70.272 40.1549 70.1149 39.4775 69.8901 38.9739L67.1507 40.1968C67.2165 40.3442 67.3244 40.7182 67.4142 41.2647C67.4995 41.7832 67.5504 42.3444 67.5504 42.8107H70.5504ZM70.5504 42.8834V42.8107H67.5504V42.8834H70.5504ZM70.9113 45.3255C71.3621 45.2769 71.5392 45.5631 71.4149 45.4215C71.321 45.3144 71.1772 45.0857 71.0239 44.7268C70.709 43.9897 70.5504 43.1816 70.5504 42.8834H67.5504C67.5504 43.7078 67.8468 44.9262 68.265 45.9052C68.4782 46.4043 68.7703 46.9559 69.1596 47.3997C69.5186 47.809 70.2262 48.4166 71.2325 48.3082L70.9113 45.3255ZM73.4157 44.1553C73.1973 44.3733 72.7875 44.6545 72.2668 44.8994C71.7489 45.1429 71.2528 45.2887 70.9113 45.3255L71.2325 48.3082C72.0023 48.2253 72.8275 47.9508 73.5434 47.6142C74.2565 47.2789 74.9927 46.82 75.5351 46.2786L73.4157 44.1553ZM78.5332 41.9722C78.1382 41.8201 77.7634 41.8286 77.5165 41.8563C77.2539 41.8859 77.0055 41.9528 76.7926 42.0246C76.3667 42.1682 75.9271 42.385 75.5315 42.6095C74.7524 43.0515 73.9188 43.6532 73.4157 44.1553L75.5351 46.2786C75.7928 46.0214 76.3874 45.5731 77.0119 45.2188C77.3181 45.045 77.5742 44.927 77.7513 44.8673C77.8399 44.8374 77.8699 44.8355 77.8516 44.8376C77.8492 44.8378 77.6848 44.8602 77.4554 44.7719L78.5332 41.9722ZM81.711 44.2166C81.2461 43.7526 80.6828 43.288 80.1469 42.904C79.6338 42.5363 79.0447 42.1691 78.5332 41.9722L77.4554 44.7719C77.6063 44.83 77.9483 45.0192 78.3993 45.3424C78.8275 45.6493 79.2615 46.0104 79.5916 46.3398L81.711 44.2166ZM86.3021 48.8078L81.7119 44.2176L79.5906 46.3389L84.1808 50.9291L86.3021 48.8078ZM88.5482 53.9832C88.6996 53.5852 88.6886 53.2081 88.6593 52.9609C88.6281 52.6974 88.5594 52.448 88.4859 52.2338C88.3388 51.8052 88.1175 51.3618 87.8877 50.9611C87.4342 50.1702 86.8188 49.3254 86.3031 48.8087L84.1799 50.9281C84.4577 51.2065 84.9214 51.819 85.2853 52.4535C85.4642 52.7655 85.5862 53.0267 85.6485 53.208C85.6796 53.2987 85.6821 53.3305 85.6801 53.3136C85.6801 53.3131 85.6562 53.1481 85.7442 52.9168L88.5482 53.9832ZM86.3121 57.1562C86.7735 56.6949 87.2359 56.1352 87.6186 55.6009C87.9849 55.0895 88.3518 54.4997 88.5482 53.9832L85.7442 52.9168C85.687 53.067 85.5005 53.4061 85.1797 53.8539C84.8754 54.2787 84.5173 54.7084 84.1908 55.0349L86.3121 57.1562ZM84.8594 59.1346C85.2008 59.4139 85.1262 59.7301 85.138 59.5455C85.1471 59.4038 85.2065 59.1419 85.3508 58.7821C85.6472 58.0429 86.1038 57.3645 86.3121 57.1562L84.1908 55.0349C83.6112 55.6145 82.9616 56.6798 82.5663 57.6655C82.3648 58.1681 82.182 58.764 82.1442 59.3534C82.1091 59.9 82.1829 60.8208 82.9595 61.4563L84.8594 59.1346ZM87.5337 60.0776C87.1927 60.0776 86.6782 59.9836 86.1256 59.7889C85.5719 59.5938 85.1178 59.346 84.8594 59.1346L82.9595 61.4563C83.5715 61.9571 84.3683 62.3505 85.1285 62.6184C85.8898 62.8866 86.7521 63.0776 87.5337 63.0776V60.0776ZM87.5893 60.0776H87.5337V63.0776H87.5893V60.0776Z" fill="#A8CB34"/>
<path d="M136.375 89H121.234L121.328 76.3438H136.375C139.5 76.3438 142.141 75.5938 144.297 74.0938C146.484 72.5938 148.141 70.3594 149.266 67.3906C150.422 64.3906 151 60.7031 151 56.3281V53.375C151 50.0938 150.672 47.2188 150.016 44.75C149.391 42.25 148.453 40.1719 147.203 38.5156C145.953 36.8281 144.391 35.5625 142.516 34.7188C140.672 33.875 138.547 33.4531 136.141 33.4531H120.953V20.75H136.141C140.766 20.75 145 21.5469 148.844 23.1406C152.719 24.7031 156.062 26.9531 158.875 29.8906C161.719 32.7969 163.906 36.25 165.438 40.25C167 44.2188 167.781 48.625 167.781 53.4688V56.3281C167.781 61.1406 167 65.5469 165.438 69.5469C163.906 73.5469 161.734 77 158.922 79.9062C156.109 82.8125 152.781 85.0625 148.938 86.6562C145.125 88.2188 140.938 89 136.375 89ZM130.656 20.75V89H114.203V20.75H130.656ZM225.985 89H210.844L210.938 76.3438H225.985C229.11 76.3438 231.751 75.5938 233.907 74.0938C236.094 72.5938 237.751 70.3594 238.876 67.3906C240.032 64.3906 240.61 60.7031 240.61 56.3281V53.375C240.61 50.0938 240.282 47.2188 239.626 44.75C239.001 42.25 238.063 40.1719 236.813 38.5156C235.563 36.8281 234.001 35.5625 232.126 34.7188C230.282 33.875 228.157 33.4531 225.751 33.4531H210.563V20.75H225.751C230.376 20.75 234.61 21.5469 238.454 23.1406C242.329 24.7031 245.673 26.9531 248.485 29.8906C251.329 32.7969 253.516 36.25 255.048 40.25C256.61 44.2188 257.391 48.625 257.391 53.4688V56.3281C257.391 61.1406 256.61 65.5469 255.048 69.5469C253.516 73.5469 251.344 77 248.532 79.9062C245.719 82.8125 242.391 85.0625 238.548 86.6562C234.735 88.2188 230.548 89 225.985 89ZM220.266 20.75V89H203.813V20.75H220.266Z" fill="#F6F6F6"/>
<path d="M195.196 70.8594C195.196 69.7969 195.039 68.8438 194.727 68C194.414 67.125 193.836 66.3125 192.993 65.5625C192.149 64.8125 190.93 64.0625 189.336 63.3125C187.774 62.5312 185.711 61.7188 183.149 60.875C180.149 59.875 177.258 58.75 174.477 57.5C171.696 56.2188 169.211 54.7344 167.024 53.0469C164.836 51.3281 163.102 49.3281 161.821 47.0469C160.539 44.7344 159.899 42.0469 159.899 38.9844C159.899 36.0469 160.555 33.4062 161.868 31.0625C163.18 28.6875 165.008 26.6719 167.352 25.0156C169.727 23.3281 172.508 22.0469 175.696 21.1719C178.883 20.2656 182.368 19.8125 186.149 19.8125C191.149 19.8125 195.555 20.6875 199.368 22.4375C203.211 24.1563 206.211 26.6094 208.368 29.7969C210.555 32.9531 211.649 36.6875 211.649 41H195.289C195.289 39.2812 194.93 37.7656 194.211 36.4531C193.524 35.1406 192.477 34.1094 191.071 33.3594C189.664 32.6094 187.899 32.2344 185.774 32.2344C183.711 32.2344 181.977 32.5469 180.571 33.1719C179.164 33.7969 178.102 34.6406 177.383 35.7031C176.664 36.7344 176.305 37.875 176.305 39.125C176.305 40.1562 176.586 41.0938 177.149 41.9375C177.743 42.75 178.571 43.5156 179.633 44.2344C180.727 44.9531 182.039 45.6406 183.571 46.2969C185.133 46.9531 186.883 47.5938 188.821 48.2188C192.446 49.375 195.664 50.6719 198.477 52.1094C201.321 53.5156 203.711 55.125 205.649 56.9375C207.618 58.7188 209.102 60.75 210.102 63.0312C211.133 65.3125 211.649 67.8906 211.649 70.7656C211.649 73.8281 211.055 76.5469 209.868 78.9219C208.68 81.2969 206.977 83.3125 204.758 84.9688C202.539 86.5938 199.883 87.8281 196.789 88.6719C193.696 89.5156 190.243 89.9375 186.43 89.9375C182.93 89.9375 179.477 89.5 176.071 88.625C172.696 87.7188 169.633 86.3438 166.883 84.5C164.133 82.625 161.93 80.2344 160.274 77.3281C158.649 74.3906 157.836 70.9062 157.836 66.875H174.336C174.336 68.875 174.602 70.5625 175.133 71.9375C175.664 73.3125 176.446 74.4219 177.477 75.2656C178.508 76.0781 179.774 76.6719 181.274 77.0469C182.774 77.3906 184.493 77.5625 186.43 77.5625C188.524 77.5625 190.211 77.2656 191.493 76.6719C192.774 76.0469 193.711 75.2344 194.305 74.2344C194.899 73.2031 195.196 72.0781 195.196 70.8594Z" fill="#A8CB34"/>
<path d="M117.349 104H115.271L115.284 102.927H117.349C118.06 102.927 118.652 102.779 119.126 102.482C119.6 102.182 119.955 101.762 120.192 101.225C120.434 100.682 120.555 100.049 120.555 99.3242V98.7158C120.555 98.1462 120.486 97.6403 120.35 97.1982C120.213 96.7516 120.012 96.3757 119.748 96.0703C119.484 95.7604 119.16 95.5257 118.777 95.3662C118.399 95.2067 117.964 95.127 117.472 95.127H115.229V94.0469H117.472C118.123 94.0469 118.718 94.1562 119.256 94.375C119.794 94.5892 120.256 94.9014 120.644 95.3115C121.035 95.7171 121.336 96.2093 121.546 96.7881C121.756 97.3623 121.86 98.0094 121.86 98.7295V99.3242C121.86 100.044 121.756 100.694 121.546 101.272C121.336 101.847 121.033 102.337 120.637 102.742C120.245 103.148 119.771 103.46 119.215 103.679C118.663 103.893 118.041 104 117.349 104ZM115.975 94.0469V104H114.655V94.0469H115.975ZM125.025 96.6035V104H123.754V96.6035H125.025ZM123.658 94.6416C123.658 94.4365 123.72 94.2633 123.843 94.1221C123.97 93.9808 124.157 93.9102 124.403 93.9102C124.645 93.9102 124.829 93.9808 124.957 94.1221C125.089 94.2633 125.155 94.4365 125.155 94.6416C125.155 94.8376 125.089 95.0062 124.957 95.1475C124.829 95.2842 124.645 95.3525 124.403 95.3525C124.157 95.3525 123.97 95.2842 123.843 95.1475C123.72 95.0062 123.658 94.8376 123.658 94.6416ZM131.362 102.038C131.362 101.856 131.321 101.687 131.239 101.532C131.162 101.373 131 101.229 130.754 101.102C130.512 100.969 130.148 100.855 129.66 100.76C129.25 100.673 128.879 100.571 128.546 100.452C128.218 100.334 127.938 100.19 127.705 100.021C127.477 99.8529 127.302 99.6546 127.179 99.4268C127.056 99.1989 126.994 98.9323 126.994 98.627C126.994 98.3353 127.058 98.0596 127.186 97.7998C127.318 97.54 127.502 97.3099 127.739 97.1094C127.981 96.9089 128.27 96.7516 128.607 96.6377C128.945 96.5238 129.321 96.4668 129.735 96.4668C130.328 96.4668 130.834 96.5716 131.253 96.7812C131.672 96.9909 131.993 97.2712 132.217 97.6221C132.44 97.9684 132.552 98.3535 132.552 98.7773H131.287C131.287 98.5723 131.226 98.374 131.103 98.1826C130.984 97.9867 130.809 97.8249 130.576 97.6973C130.348 97.5697 130.068 97.5059 129.735 97.5059C129.384 97.5059 129.1 97.5605 128.881 97.6699C128.667 97.7747 128.509 97.9092 128.409 98.0732C128.313 98.2373 128.266 98.4105 128.266 98.5928C128.266 98.7295 128.288 98.8525 128.334 98.9619C128.384 99.0667 128.471 99.1647 128.594 99.2559C128.717 99.3424 128.89 99.4245 129.113 99.502C129.337 99.5794 129.621 99.6569 129.968 99.7344C130.574 99.8711 131.073 100.035 131.465 100.227C131.857 100.418 132.148 100.653 132.34 100.931C132.531 101.209 132.627 101.546 132.627 101.942C132.627 102.266 132.559 102.562 132.422 102.831C132.29 103.1 132.096 103.332 131.841 103.528C131.59 103.72 131.289 103.87 130.938 103.979C130.592 104.084 130.202 104.137 129.77 104.137C129.118 104.137 128.566 104.021 128.115 103.788C127.664 103.556 127.322 103.255 127.09 102.886C126.857 102.517 126.741 102.127 126.741 101.717H128.013C128.031 102.063 128.131 102.339 128.313 102.544C128.496 102.744 128.719 102.888 128.983 102.975C129.248 103.057 129.51 103.098 129.77 103.098C130.116 103.098 130.405 103.052 130.638 102.961C130.875 102.87 131.055 102.744 131.178 102.585C131.301 102.425 131.362 102.243 131.362 102.038ZM137.385 96.6035V97.5742H133.386V96.6035H137.385ZM134.739 94.8057H136.004V102.168C136.004 102.419 136.043 102.608 136.12 102.735C136.198 102.863 136.298 102.947 136.421 102.988C136.544 103.029 136.676 103.05 136.817 103.05C136.922 103.05 137.032 103.041 137.146 103.022C137.264 103 137.353 102.981 137.412 102.968L137.419 104C137.319 104.032 137.187 104.062 137.022 104.089C136.863 104.121 136.669 104.137 136.441 104.137C136.132 104.137 135.847 104.075 135.587 103.952C135.327 103.829 135.12 103.624 134.965 103.337C134.814 103.045 134.739 102.653 134.739 102.161V94.8057ZM140.133 97.7656V104H138.868V96.6035H140.099L140.133 97.7656ZM142.443 96.5625L142.437 97.7383C142.332 97.7155 142.231 97.7018 142.136 97.6973C142.045 97.6882 141.94 97.6836 141.821 97.6836C141.53 97.6836 141.272 97.7292 141.049 97.8203C140.826 97.9115 140.636 98.0391 140.481 98.2031C140.326 98.3672 140.203 98.5632 140.112 98.791C140.026 99.0143 139.969 99.2604 139.941 99.5293L139.586 99.7344C139.586 99.2878 139.629 98.8685 139.716 98.4766C139.807 98.0846 139.946 97.7383 140.133 97.4375C140.32 97.1322 140.557 96.8952 140.844 96.7266C141.135 96.5534 141.482 96.4668 141.883 96.4668C141.974 96.4668 142.079 96.4782 142.197 96.501C142.316 96.5192 142.398 96.5397 142.443 96.5625ZM144.986 96.6035V104H143.715V96.6035H144.986ZM143.619 94.6416C143.619 94.4365 143.681 94.2633 143.804 94.1221C143.931 93.9808 144.118 93.9102 144.364 93.9102C144.606 93.9102 144.79 93.9808 144.918 94.1221C145.05 94.2633 145.116 94.4365 145.116 94.6416C145.116 94.8376 145.05 95.0062 144.918 95.1475C144.79 95.2842 144.606 95.3525 144.364 95.3525C144.118 95.3525 143.931 95.2842 143.804 95.1475C143.681 95.0062 143.619 94.8376 143.619 94.6416ZM147.01 93.5H148.281V102.564L148.172 104H147.01V93.5ZM153.278 100.24V100.384C153.278 100.922 153.215 101.421 153.087 101.881C152.959 102.337 152.772 102.733 152.526 103.07C152.28 103.408 151.979 103.67 151.624 103.856C151.269 104.043 150.861 104.137 150.4 104.137C149.931 104.137 149.519 104.057 149.163 103.897C148.812 103.733 148.516 103.499 148.274 103.193C148.033 102.888 147.839 102.519 147.693 102.086C147.552 101.653 147.454 101.165 147.399 100.623V99.9941C147.454 99.4473 147.552 98.9574 147.693 98.5244C147.839 98.0915 148.033 97.7223 148.274 97.417C148.516 97.1071 148.812 96.8724 149.163 96.7129C149.514 96.5488 149.922 96.4668 150.387 96.4668C150.852 96.4668 151.264 96.5579 151.624 96.7402C151.984 96.918 152.285 97.1732 152.526 97.5059C152.772 97.8385 152.959 98.2373 153.087 98.7021C153.215 99.1624 153.278 99.6751 153.278 100.24ZM152.007 100.384V100.24C152.007 99.8711 151.973 99.5247 151.904 99.2012C151.836 98.873 151.727 98.5859 151.576 98.3398C151.426 98.0892 151.228 97.8932 150.981 97.752C150.735 97.6061 150.432 97.5332 150.072 97.5332C149.753 97.5332 149.475 97.5879 149.238 97.6973C149.006 97.8066 148.808 97.9548 148.644 98.1416C148.479 98.3239 148.345 98.5335 148.24 98.7705C148.14 99.0029 148.065 99.2445 148.015 99.4951V101.143C148.088 101.462 148.206 101.769 148.37 102.065C148.539 102.357 148.762 102.596 149.04 102.783C149.323 102.97 149.671 103.063 150.086 103.063C150.428 103.063 150.719 102.995 150.961 102.858C151.207 102.717 151.405 102.523 151.556 102.277C151.711 102.031 151.825 101.746 151.897 101.423C151.97 101.099 152.007 100.753 152.007 100.384ZM159.403 102.291V96.6035H160.675V104H159.465L159.403 102.291ZM159.643 100.732L160.169 100.719C160.169 101.211 160.117 101.667 160.012 102.086C159.911 102.501 159.747 102.861 159.52 103.166C159.292 103.471 158.993 103.711 158.624 103.884C158.255 104.052 157.806 104.137 157.277 104.137C156.917 104.137 156.587 104.084 156.286 103.979C155.99 103.875 155.735 103.713 155.521 103.494C155.306 103.275 155.14 102.991 155.021 102.64C154.908 102.289 154.851 101.867 154.851 101.375V96.6035H156.115V101.389C156.115 101.721 156.152 101.997 156.225 102.216C156.302 102.43 156.405 102.601 156.532 102.729C156.664 102.852 156.81 102.938 156.97 102.988C157.134 103.038 157.302 103.063 157.476 103.063C158.013 103.063 158.439 102.961 158.754 102.756C159.068 102.546 159.294 102.266 159.431 101.915C159.572 101.56 159.643 101.165 159.643 100.732ZM163.977 96.6035V104H162.705V96.6035H163.977ZM162.609 94.6416C162.609 94.4365 162.671 94.2633 162.794 94.1221C162.922 93.9808 163.108 93.9102 163.354 93.9102C163.596 93.9102 163.781 93.9808 163.908 94.1221C164.04 94.2633 164.106 94.4365 164.106 94.6416C164.106 94.8376 164.04 95.0062 163.908 95.1475C163.781 95.2842 163.596 95.3525 163.354 95.3525C163.108 95.3525 162.922 95.2842 162.794 95.1475C162.671 95.0062 162.609 94.8376 162.609 94.6416ZM168.967 103.098C169.268 103.098 169.546 103.036 169.801 102.913C170.056 102.79 170.266 102.621 170.43 102.407C170.594 102.188 170.687 101.94 170.71 101.662H171.913C171.89 102.1 171.742 102.507 171.469 102.886C171.2 103.259 170.847 103.562 170.409 103.795C169.972 104.023 169.491 104.137 168.967 104.137C168.411 104.137 167.925 104.039 167.511 103.843C167.101 103.647 166.759 103.378 166.485 103.036C166.216 102.694 166.014 102.302 165.877 101.86C165.745 101.414 165.679 100.942 165.679 100.445V100.158C165.679 99.6615 165.745 99.1921 165.877 98.75C166.014 98.3034 166.216 97.9092 166.485 97.5674C166.759 97.2256 167.101 96.9567 167.511 96.7607C167.925 96.5648 168.411 96.4668 168.967 96.4668C169.546 96.4668 170.051 96.5853 170.484 96.8223C170.917 97.0547 171.257 97.3737 171.503 97.7793C171.754 98.1803 171.89 98.6361 171.913 99.1465H170.71C170.687 98.8411 170.601 98.5654 170.45 98.3193C170.304 98.0732 170.104 97.8773 169.849 97.7314C169.598 97.5811 169.304 97.5059 168.967 97.5059C168.579 97.5059 168.254 97.5833 167.989 97.7383C167.729 97.8887 167.522 98.0938 167.367 98.3535C167.217 98.6087 167.107 98.8936 167.039 99.208C166.975 99.5179 166.943 99.8346 166.943 100.158V100.445C166.943 100.769 166.975 101.088 167.039 101.402C167.103 101.717 167.21 102.002 167.36 102.257C167.515 102.512 167.723 102.717 167.982 102.872C168.247 103.022 168.575 103.098 168.967 103.098ZM168.27 104.068H169.179L169.097 104.431C169.361 104.476 169.6 104.586 169.814 104.759C170.033 104.932 170.143 105.217 170.143 105.613C170.143 105.827 170.097 106.021 170.006 106.194C169.919 106.372 169.789 106.522 169.616 106.646C169.443 106.773 169.227 106.871 168.967 106.939C168.712 107.008 168.413 107.042 168.071 107.042L168.023 106.311C168.233 106.311 168.422 106.288 168.591 106.242C168.764 106.197 168.901 106.124 169.001 106.023C169.106 105.923 169.158 105.793 169.158 105.634C169.158 105.483 169.119 105.365 169.042 105.278C168.965 105.192 168.844 105.126 168.68 105.08C168.52 105.039 168.313 105.009 168.058 104.991L168.27 104.068ZM177.696 102.735V98.9277C177.696 98.6361 177.637 98.3831 177.519 98.1689C177.405 97.9502 177.231 97.7816 176.999 97.6631C176.767 97.5446 176.479 97.4854 176.138 97.4854C175.819 97.4854 175.538 97.54 175.297 97.6494C175.06 97.7588 174.873 97.9023 174.736 98.0801C174.604 98.2578 174.538 98.4492 174.538 98.6543H173.273C173.273 98.39 173.342 98.1279 173.479 97.8682C173.615 97.6084 173.811 97.3737 174.066 97.1641C174.326 96.9499 174.636 96.7812 174.996 96.6582C175.361 96.5306 175.766 96.4668 176.213 96.4668C176.751 96.4668 177.225 96.5579 177.635 96.7402C178.049 96.9225 178.373 97.1982 178.605 97.5674C178.842 97.932 178.961 98.39 178.961 98.9414V102.387C178.961 102.633 178.981 102.895 179.022 103.173C179.068 103.451 179.134 103.69 179.221 103.891V104H177.901C177.838 103.854 177.787 103.66 177.751 103.419C177.715 103.173 177.696 102.945 177.696 102.735ZM177.915 99.5156L177.929 100.404H176.65C176.29 100.404 175.969 100.434 175.687 100.493C175.404 100.548 175.167 100.632 174.976 100.746C174.784 100.86 174.638 101.004 174.538 101.177C174.438 101.345 174.388 101.544 174.388 101.771C174.388 102.004 174.44 102.216 174.545 102.407C174.65 102.599 174.807 102.751 175.017 102.865C175.231 102.975 175.493 103.029 175.803 103.029C176.19 103.029 176.532 102.947 176.828 102.783C177.124 102.619 177.359 102.419 177.532 102.182C177.71 101.945 177.806 101.715 177.819 101.491L178.359 102.1C178.327 102.291 178.241 102.503 178.1 102.735C177.958 102.968 177.769 103.191 177.532 103.405C177.3 103.615 177.022 103.79 176.698 103.932C176.379 104.068 176.019 104.137 175.618 104.137C175.117 104.137 174.677 104.039 174.299 103.843C173.925 103.647 173.633 103.385 173.424 103.057C173.219 102.724 173.116 102.353 173.116 101.942C173.116 101.546 173.194 101.197 173.349 100.896C173.504 100.591 173.727 100.338 174.019 100.138C174.31 99.9326 174.661 99.7777 175.071 99.6729C175.481 99.568 175.939 99.5156 176.445 99.5156H177.915ZM177.922 93.6367L178.776 93.7119C178.776 94.0446 178.71 94.3363 178.578 94.5869C178.446 94.8376 178.268 95.0312 178.045 95.168C177.826 95.3047 177.578 95.373 177.3 95.373C177.067 95.373 176.876 95.3411 176.726 95.2773C176.575 95.209 176.441 95.1338 176.322 95.0518C176.204 94.9652 176.078 94.89 175.946 94.8262C175.819 94.7578 175.659 94.7236 175.468 94.7236C175.276 94.7236 175.115 94.7965 174.982 94.9424C174.855 95.0882 174.791 95.2682 174.791 95.4824L173.937 95.4414C173.937 95.1087 174 94.8171 174.128 94.5664C174.26 94.3112 174.438 94.113 174.661 93.9717C174.884 93.8258 175.133 93.7529 175.406 93.7529C175.602 93.7529 175.773 93.7871 175.919 93.8555C176.069 93.9193 176.211 93.9945 176.343 94.0811C176.475 94.1631 176.612 94.2383 176.753 94.3066C176.894 94.3704 177.056 94.4023 177.238 94.4023C177.43 94.4023 177.591 94.3294 177.724 94.1836C177.856 94.0332 177.922 93.8509 177.922 93.6367ZM180.615 100.384V100.227C180.615 99.6934 180.693 99.1989 180.848 98.7432C181.003 98.2829 181.226 97.8841 181.518 97.5469C181.809 97.2051 182.162 96.9408 182.577 96.7539C182.992 96.5625 183.457 96.4668 183.972 96.4668C184.491 96.4668 184.958 96.5625 185.373 96.7539C185.792 96.9408 186.148 97.2051 186.439 97.5469C186.736 97.8841 186.961 98.2829 187.116 98.7432C187.271 99.1989 187.349 99.6934 187.349 100.227V100.384C187.349 100.917 187.271 101.411 187.116 101.867C186.961 102.323 186.736 102.722 186.439 103.063C186.148 103.401 185.795 103.665 185.38 103.856C184.97 104.043 184.505 104.137 183.985 104.137C183.466 104.137 182.999 104.043 182.584 103.856C182.169 103.665 181.814 103.401 181.518 103.063C181.226 102.722 181.003 102.323 180.848 101.867C180.693 101.411 180.615 100.917 180.615 100.384ZM181.88 100.227V100.384C181.88 100.753 181.923 101.102 182.01 101.43C182.096 101.753 182.226 102.04 182.399 102.291C182.577 102.542 182.798 102.74 183.062 102.886C183.327 103.027 183.634 103.098 183.985 103.098C184.332 103.098 184.635 103.027 184.895 102.886C185.159 102.74 185.378 102.542 185.551 102.291C185.724 102.04 185.854 101.753 185.94 101.43C186.032 101.102 186.077 100.753 186.077 100.384V100.227C186.077 99.862 186.032 99.5179 185.94 99.1943C185.854 98.8662 185.722 98.5768 185.544 98.3262C185.371 98.071 185.152 97.8704 184.888 97.7246C184.628 97.5788 184.323 97.5059 183.972 97.5059C183.625 97.5059 183.32 97.5788 183.056 97.7246C182.796 97.8704 182.577 98.071 182.399 98.3262C182.226 98.5768 182.096 98.8662 182.01 99.1943C181.923 99.5179 181.88 99.862 181.88 100.227ZM117.349 117H115.271L115.284 115.927H117.349C118.06 115.927 118.652 115.779 119.126 115.482C119.6 115.182 119.955 114.762 120.192 114.225C120.434 113.682 120.555 113.049 120.555 112.324V111.716C120.555 111.146 120.486 110.64 120.35 110.198C120.213 109.752 120.012 109.376 119.748 109.07C119.484 108.76 119.16 108.526 118.777 108.366C118.399 108.207 117.964 108.127 117.472 108.127H115.229V107.047H117.472C118.123 107.047 118.718 107.156 119.256 107.375C119.794 107.589 120.256 107.901 120.644 108.312C121.035 108.717 121.336 109.209 121.546 109.788C121.756 110.362 121.86 111.009 121.86 111.729V112.324C121.86 113.044 121.756 113.694 121.546 114.272C121.336 114.847 121.033 115.337 120.637 115.742C120.245 116.148 119.771 116.46 119.215 116.679C118.663 116.893 118.041 117 117.349 117ZM115.975 107.047V117H114.655V107.047H115.975ZM123.316 113.384V113.227C123.316 112.693 123.394 112.199 123.549 111.743C123.704 111.283 123.927 110.884 124.219 110.547C124.51 110.205 124.864 109.941 125.278 109.754C125.693 109.562 126.158 109.467 126.673 109.467C127.192 109.467 127.66 109.562 128.074 109.754C128.493 109.941 128.849 110.205 129.141 110.547C129.437 110.884 129.662 111.283 129.817 111.743C129.972 112.199 130.05 112.693 130.05 113.227V113.384C130.05 113.917 129.972 114.411 129.817 114.867C129.662 115.323 129.437 115.722 129.141 116.063C128.849 116.401 128.496 116.665 128.081 116.856C127.671 117.043 127.206 117.137 126.687 117.137C126.167 117.137 125.7 117.043 125.285 116.856C124.87 116.665 124.515 116.401 124.219 116.063C123.927 115.722 123.704 115.323 123.549 114.867C123.394 114.411 123.316 113.917 123.316 113.384ZM124.581 113.227V113.384C124.581 113.753 124.624 114.102 124.711 114.43C124.798 114.753 124.927 115.04 125.101 115.291C125.278 115.542 125.499 115.74 125.764 115.886C126.028 116.027 126.336 116.098 126.687 116.098C127.033 116.098 127.336 116.027 127.596 115.886C127.86 115.74 128.079 115.542 128.252 115.291C128.425 115.04 128.555 114.753 128.642 114.43C128.733 114.102 128.778 113.753 128.778 113.384V113.227C128.778 112.862 128.733 112.518 128.642 112.194C128.555 111.866 128.423 111.577 128.245 111.326C128.072 111.071 127.853 110.87 127.589 110.725C127.329 110.579 127.024 110.506 126.673 110.506C126.326 110.506 126.021 110.579 125.757 110.725C125.497 110.87 125.278 111.071 125.101 111.326C124.927 111.577 124.798 111.866 124.711 112.194C124.624 112.518 124.581 112.862 124.581 113.227ZM134.596 116.098C134.896 116.098 135.174 116.036 135.43 115.913C135.685 115.79 135.895 115.621 136.059 115.407C136.223 115.188 136.316 114.94 136.339 114.662H137.542C137.519 115.1 137.371 115.507 137.098 115.886C136.829 116.259 136.476 116.562 136.038 116.795C135.601 117.023 135.12 117.137 134.596 117.137C134.04 117.137 133.554 117.039 133.14 116.843C132.729 116.647 132.388 116.378 132.114 116.036C131.845 115.694 131.643 115.302 131.506 114.86C131.374 114.414 131.308 113.942 131.308 113.445V113.158C131.308 112.661 131.374 112.192 131.506 111.75C131.643 111.303 131.845 110.909 132.114 110.567C132.388 110.226 132.729 109.957 133.14 109.761C133.554 109.565 134.04 109.467 134.596 109.467C135.174 109.467 135.68 109.585 136.113 109.822C136.546 110.055 136.886 110.374 137.132 110.779C137.382 111.18 137.519 111.636 137.542 112.146H136.339C136.316 111.841 136.229 111.565 136.079 111.319C135.933 111.073 135.733 110.877 135.478 110.731C135.227 110.581 134.933 110.506 134.596 110.506C134.208 110.506 133.882 110.583 133.618 110.738C133.358 110.889 133.151 111.094 132.996 111.354C132.846 111.609 132.736 111.894 132.668 112.208C132.604 112.518 132.572 112.835 132.572 113.158V113.445C132.572 113.769 132.604 114.088 132.668 114.402C132.732 114.717 132.839 115.002 132.989 115.257C133.144 115.512 133.352 115.717 133.611 115.872C133.876 116.022 134.204 116.098 134.596 116.098ZM142.033 117.137C141.518 117.137 141.051 117.05 140.632 116.877C140.217 116.699 139.859 116.451 139.559 116.132C139.262 115.813 139.035 115.435 138.875 114.997C138.715 114.56 138.636 114.081 138.636 113.562V113.274C138.636 112.673 138.725 112.137 138.902 111.668C139.08 111.194 139.322 110.793 139.627 110.465C139.932 110.137 140.279 109.888 140.666 109.72C141.053 109.551 141.454 109.467 141.869 109.467C142.398 109.467 142.854 109.558 143.236 109.74C143.624 109.923 143.94 110.178 144.187 110.506C144.433 110.829 144.615 111.212 144.733 111.654C144.852 112.092 144.911 112.57 144.911 113.09V113.657H139.388V112.625H143.646V112.529C143.628 112.201 143.56 111.882 143.441 111.572C143.327 111.262 143.145 111.007 142.895 110.807C142.644 110.606 142.302 110.506 141.869 110.506C141.582 110.506 141.318 110.567 141.076 110.69C140.835 110.809 140.627 110.987 140.454 111.224C140.281 111.461 140.146 111.75 140.051 112.092C139.955 112.434 139.907 112.828 139.907 113.274V113.562C139.907 113.912 139.955 114.243 140.051 114.553C140.151 114.858 140.295 115.127 140.481 115.359C140.673 115.592 140.903 115.774 141.172 115.906C141.445 116.038 141.755 116.104 142.102 116.104C142.548 116.104 142.926 116.013 143.236 115.831C143.546 115.649 143.817 115.405 144.05 115.1L144.815 115.708C144.656 115.95 144.453 116.18 144.207 116.398C143.961 116.617 143.658 116.795 143.298 116.932C142.942 117.068 142.521 117.137 142.033 117.137ZM147.652 111.183V117H146.388V109.604H147.584L147.652 111.183ZM147.352 113.021L146.825 113.001C146.83 112.495 146.905 112.028 147.051 111.6C147.197 111.167 147.402 110.791 147.666 110.472C147.93 110.153 148.245 109.907 148.609 109.733C148.979 109.556 149.386 109.467 149.833 109.467C150.198 109.467 150.526 109.517 150.817 109.617C151.109 109.713 151.357 109.868 151.562 110.082C151.772 110.296 151.932 110.574 152.041 110.916C152.15 111.253 152.205 111.666 152.205 112.153V117H150.934V112.14C150.934 111.752 150.877 111.442 150.763 111.21C150.649 110.973 150.482 110.802 150.264 110.697C150.045 110.588 149.776 110.533 149.457 110.533C149.143 110.533 148.855 110.599 148.596 110.731C148.34 110.864 148.119 111.046 147.933 111.278C147.75 111.511 147.607 111.777 147.502 112.078C147.402 112.374 147.352 112.689 147.352 113.021ZM157.223 109.604V110.574H153.224V109.604H157.223ZM154.577 107.806H155.842V115.168C155.842 115.419 155.881 115.608 155.958 115.735C156.035 115.863 156.136 115.947 156.259 115.988C156.382 116.029 156.514 116.05 156.655 116.05C156.76 116.05 156.869 116.041 156.983 116.022C157.102 116 157.191 115.981 157.25 115.968L157.257 117C157.157 117.032 157.024 117.062 156.86 117.089C156.701 117.121 156.507 117.137 156.279 117.137C155.969 117.137 155.685 117.075 155.425 116.952C155.165 116.829 154.958 116.624 154.803 116.337C154.652 116.045 154.577 115.653 154.577 115.161V107.806ZM161.775 117.137C161.26 117.137 160.793 117.05 160.374 116.877C159.959 116.699 159.602 116.451 159.301 116.132C159.005 115.813 158.777 115.435 158.617 114.997C158.458 114.56 158.378 114.081 158.378 113.562V113.274C158.378 112.673 158.467 112.137 158.645 111.668C158.822 111.194 159.064 110.793 159.369 110.465C159.674 110.137 160.021 109.888 160.408 109.72C160.796 109.551 161.197 109.467 161.611 109.467C162.14 109.467 162.596 109.558 162.979 109.74C163.366 109.923 163.683 110.178 163.929 110.506C164.175 110.829 164.357 111.212 164.476 111.654C164.594 112.092 164.653 112.57 164.653 113.09V113.657H159.13V112.625H163.389V112.529C163.37 112.201 163.302 111.882 163.184 111.572C163.07 111.262 162.887 111.007 162.637 110.807C162.386 110.606 162.044 110.506 161.611 110.506C161.324 110.506 161.06 110.567 160.818 110.69C160.577 110.809 160.369 110.987 160.196 111.224C160.023 111.461 159.889 111.75 159.793 112.092C159.697 112.434 159.649 112.828 159.649 113.274V113.562C159.649 113.912 159.697 114.243 159.793 114.553C159.893 114.858 160.037 115.127 160.224 115.359C160.415 115.592 160.645 115.774 160.914 115.906C161.188 116.038 161.497 116.104 161.844 116.104C162.29 116.104 162.669 116.013 162.979 115.831C163.288 115.649 163.56 115.405 163.792 115.1L164.558 115.708C164.398 115.95 164.195 116.18 163.949 116.398C163.703 116.617 163.4 116.795 163.04 116.932C162.685 117.068 162.263 117.137 161.775 117.137Z" fill="#F6F6F6"/>
<path d="M197.069 102.564V93.5H198.341V104H197.179L197.069 102.564ZM192.093 100.384V100.24C192.093 99.6751 192.161 99.1624 192.298 98.7021C192.439 98.2373 192.637 97.8385 192.893 97.5059C193.152 97.1732 193.46 96.918 193.815 96.7402C194.175 96.5579 194.576 96.4668 195.019 96.4668C195.483 96.4668 195.889 96.5488 196.235 96.7129C196.586 96.8724 196.882 97.1071 197.124 97.417C197.37 97.7223 197.564 98.0915 197.705 98.5244C197.846 98.9574 197.944 99.4473 197.999 99.9941V100.623C197.949 101.165 197.851 101.653 197.705 102.086C197.564 102.519 197.37 102.888 197.124 103.193C196.882 103.499 196.586 103.733 196.235 103.897C195.884 104.057 195.474 104.137 195.005 104.137C194.572 104.137 194.175 104.043 193.815 103.856C193.46 103.67 193.152 103.408 192.893 103.07C192.637 102.733 192.439 102.337 192.298 101.881C192.161 101.421 192.093 100.922 192.093 100.384ZM193.364 100.24V100.384C193.364 100.753 193.401 101.099 193.474 101.423C193.551 101.746 193.67 102.031 193.829 102.277C193.989 102.523 194.191 102.717 194.438 102.858C194.684 102.995 194.978 103.063 195.319 103.063C195.739 103.063 196.083 102.975 196.352 102.797C196.625 102.619 196.844 102.384 197.008 102.093C197.172 101.801 197.299 101.484 197.391 101.143V99.4951C197.336 99.2445 197.256 99.0029 197.151 98.7705C197.051 98.5335 196.919 98.3239 196.755 98.1416C196.595 97.9548 196.397 97.8066 196.16 97.6973C195.928 97.5879 195.652 97.5332 195.333 97.5332C194.987 97.5332 194.688 97.6061 194.438 97.752C194.191 97.8932 193.989 98.0892 193.829 98.3398C193.67 98.5859 193.551 98.873 193.474 99.2012C193.401 99.5247 193.364 99.8711 193.364 100.24ZM203.379 104.137C202.864 104.137 202.397 104.05 201.978 103.877C201.563 103.699 201.205 103.451 200.904 103.132C200.608 102.813 200.38 102.435 200.221 101.997C200.061 101.56 199.981 101.081 199.981 100.562V100.274C199.981 99.6729 200.07 99.1374 200.248 98.668C200.426 98.194 200.667 97.793 200.973 97.4648C201.278 97.1367 201.624 96.8883 202.012 96.7197C202.399 96.5511 202.8 96.4668 203.215 96.4668C203.743 96.4668 204.199 96.5579 204.582 96.7402C204.969 96.9225 205.286 97.1777 205.532 97.5059C205.778 97.8294 205.961 98.2122 206.079 98.6543C206.198 99.0918 206.257 99.5703 206.257 100.09V100.657H200.733V99.625H204.992V99.5293C204.974 99.2012 204.906 98.8822 204.787 98.5723C204.673 98.2624 204.491 98.0072 204.24 97.8066C203.99 97.6061 203.648 97.5059 203.215 97.5059C202.928 97.5059 202.663 97.5674 202.422 97.6904C202.18 97.8089 201.973 97.9867 201.8 98.2236C201.627 98.4606 201.492 98.75 201.396 99.0918C201.301 99.4336 201.253 99.8278 201.253 100.274V100.562C201.253 100.912 201.301 101.243 201.396 101.553C201.497 101.858 201.64 102.127 201.827 102.359C202.019 102.592 202.249 102.774 202.518 102.906C202.791 103.038 203.101 103.104 203.447 103.104C203.894 103.104 204.272 103.013 204.582 102.831C204.892 102.649 205.163 102.405 205.396 102.1L206.161 102.708C206.002 102.95 205.799 103.18 205.553 103.398C205.307 103.617 205.004 103.795 204.644 103.932C204.288 104.068 203.867 104.137 203.379 104.137Z" fill="#A0A0A0"/>
<path d="M216.702 101.484C216.702 101.252 216.666 101.047 216.593 100.869C216.524 100.687 216.401 100.523 216.224 100.377C216.05 100.231 215.809 100.092 215.499 99.96C215.194 99.8278 214.806 99.6934 214.337 99.5566C213.845 99.4108 213.4 99.249 213.004 99.0713C212.607 98.889 212.268 98.6816 211.985 98.4492C211.703 98.2168 211.486 97.9502 211.336 97.6494C211.186 97.3486 211.11 97.0046 211.11 96.6172C211.11 96.2298 211.19 95.8721 211.35 95.5439C211.509 95.2158 211.737 94.931 212.033 94.6895C212.334 94.4434 212.692 94.252 213.106 94.1152C213.521 93.9785 213.984 93.9102 214.494 93.9102C215.242 93.9102 215.875 94.0537 216.395 94.3408C216.919 94.6234 217.317 94.9948 217.591 95.4551C217.864 95.9108 218.001 96.3984 218.001 96.918H216.688C216.688 96.5443 216.609 96.2139 216.449 95.9268C216.29 95.6351 216.048 95.4072 215.725 95.2432C215.401 95.0745 214.991 94.9902 214.494 94.9902C214.025 94.9902 213.637 95.0609 213.332 95.2021C213.027 95.3434 212.799 95.5348 212.648 95.7764C212.503 96.0179 212.43 96.2936 212.43 96.6035C212.43 96.8132 212.473 97.0046 212.56 97.1777C212.651 97.3464 212.79 97.5036 212.977 97.6494C213.168 97.7952 213.41 97.9297 213.701 98.0527C213.997 98.1758 214.351 98.2943 214.761 98.4082C215.326 98.5677 215.813 98.7454 216.224 98.9414C216.634 99.1374 216.971 99.3584 217.235 99.6045C217.504 99.846 217.702 100.122 217.83 100.432C217.962 100.737 218.028 101.083 218.028 101.471C218.028 101.876 217.946 102.243 217.782 102.571C217.618 102.899 217.383 103.18 217.078 103.412C216.773 103.645 216.406 103.825 215.978 103.952C215.554 104.075 215.08 104.137 214.556 104.137C214.095 104.137 213.642 104.073 213.195 103.945C212.753 103.818 212.35 103.626 211.985 103.371C211.625 103.116 211.336 102.801 211.117 102.428C210.903 102.049 210.796 101.612 210.796 101.115H212.108C212.108 101.457 212.174 101.751 212.307 101.997C212.439 102.239 212.619 102.439 212.847 102.599C213.079 102.758 213.341 102.877 213.633 102.954C213.929 103.027 214.237 103.063 214.556 103.063C215.016 103.063 215.406 103 215.725 102.872C216.044 102.744 216.285 102.562 216.449 102.325C216.618 102.088 216.702 101.808 216.702 101.484ZM222.588 104.137C222.073 104.137 221.606 104.05 221.187 103.877C220.772 103.699 220.414 103.451 220.113 103.132C219.817 102.813 219.589 102.435 219.43 101.997C219.27 101.56 219.19 101.081 219.19 100.562V100.274C219.19 99.6729 219.279 99.1374 219.457 98.668C219.635 98.194 219.876 97.793 220.182 97.4648C220.487 97.1367 220.833 96.8883 221.221 96.7197C221.608 96.5511 222.009 96.4668 222.424 96.4668C222.952 96.4668 223.408 96.5579 223.791 96.7402C224.178 96.9225 224.495 97.1777 224.741 97.5059C224.987 97.8294 225.17 98.2122 225.288 98.6543C225.407 99.0918 225.466 99.5703 225.466 100.09V100.657H219.942V99.625H224.201V99.5293C224.183 99.2012 224.115 98.8822 223.996 98.5723C223.882 98.2624 223.7 98.0072 223.449 97.8066C223.199 97.6061 222.857 97.5059 222.424 97.5059C222.137 97.5059 221.872 97.5674 221.631 97.6904C221.389 97.8089 221.182 97.9867 221.009 98.2236C220.836 98.4606 220.701 98.75 220.605 99.0918C220.51 99.4336 220.462 99.8278 220.462 100.274V100.562C220.462 100.912 220.51 101.243 220.605 101.553C220.706 101.858 220.849 102.127 221.036 102.359C221.228 102.592 221.458 102.774 221.727 102.906C222 103.038 222.31 103.104 222.656 103.104C223.103 103.104 223.481 103.013 223.791 102.831C224.101 102.649 224.372 102.405 224.604 102.1L225.37 102.708C225.211 102.95 225.008 103.18 224.762 103.398C224.516 103.617 224.213 103.795 223.853 103.932C223.497 104.068 223.076 104.137 222.588 104.137ZM228.207 97.7656V104H226.942V96.6035H228.173L228.207 97.7656ZM230.518 96.5625L230.511 97.7383C230.406 97.7155 230.306 97.7018 230.21 97.6973C230.119 97.6882 230.014 97.6836 229.896 97.6836C229.604 97.6836 229.346 97.7292 229.123 97.8203C228.9 97.9115 228.711 98.0391 228.556 98.2031C228.401 98.3672 228.278 98.5632 228.187 98.791C228.1 99.0143 228.043 99.2604 228.016 99.5293L227.66 99.7344C227.66 99.2878 227.703 98.8685 227.79 98.4766C227.881 98.0846 228.02 97.7383 228.207 97.4375C228.394 97.1322 228.631 96.8952 228.918 96.7266C229.21 96.5534 229.556 96.4668 229.957 96.4668C230.048 96.4668 230.153 96.4782 230.271 96.501C230.39 96.5192 230.472 96.5397 230.518 96.5625ZM234.059 102.858L236.082 96.6035H237.374L234.715 104H233.867L234.059 102.858ZM232.37 96.6035L234.455 102.893L234.599 104H233.751L231.071 96.6035H232.37ZM239.965 96.6035V104H238.693V96.6035H239.965ZM238.598 94.6416C238.598 94.4365 238.659 94.2633 238.782 94.1221C238.91 93.9808 239.097 93.9102 239.343 93.9102C239.584 93.9102 239.769 93.9808 239.896 94.1221C240.029 94.2633 240.095 94.4365 240.095 94.6416C240.095 94.8376 240.029 95.0062 239.896 95.1475C239.769 95.2842 239.584 95.3525 239.343 95.3525C239.097 95.3525 238.91 95.2842 238.782 95.1475C238.659 95.0062 238.598 94.8376 238.598 94.6416ZM244.955 103.098C245.256 103.098 245.534 103.036 245.789 102.913C246.044 102.79 246.254 102.621 246.418 102.407C246.582 102.188 246.675 101.94 246.698 101.662H247.901C247.879 102.1 247.73 102.507 247.457 102.886C247.188 103.259 246.835 103.562 246.397 103.795C245.96 104.023 245.479 104.137 244.955 104.137C244.399 104.137 243.914 104.039 243.499 103.843C243.089 103.647 242.747 103.378 242.474 103.036C242.205 102.694 242.002 102.302 241.865 101.86C241.733 101.414 241.667 100.942 241.667 100.445V100.158C241.667 99.6615 241.733 99.1921 241.865 98.75C242.002 98.3034 242.205 97.9092 242.474 97.5674C242.747 97.2256 243.089 96.9567 243.499 96.7607C243.914 96.5648 244.399 96.4668 244.955 96.4668C245.534 96.4668 246.04 96.5853 246.473 96.8223C246.906 97.0547 247.245 97.3737 247.491 97.7793C247.742 98.1803 247.879 98.6361 247.901 99.1465H246.698C246.675 98.8411 246.589 98.5654 246.438 98.3193C246.293 98.0732 246.092 97.8773 245.837 97.7314C245.586 97.5811 245.292 97.5059 244.955 97.5059C244.568 97.5059 244.242 97.5833 243.978 97.7383C243.718 97.8887 243.51 98.0938 243.355 98.3535C243.205 98.6087 243.096 98.8936 243.027 99.208C242.964 99.5179 242.932 99.8346 242.932 100.158V100.445C242.932 100.769 242.964 101.088 243.027 101.402C243.091 101.717 243.198 102.002 243.349 102.257C243.504 102.512 243.711 102.717 243.971 102.872C244.235 103.022 244.563 103.098 244.955 103.098ZM244.258 104.068H245.167L245.085 104.431C245.349 104.476 245.589 104.586 245.803 104.759C246.021 104.932 246.131 105.217 246.131 105.613C246.131 105.827 246.085 106.021 245.994 106.194C245.908 106.372 245.778 106.522 245.604 106.646C245.431 106.773 245.215 106.871 244.955 106.939C244.7 107.008 244.401 107.042 244.06 107.042L244.012 106.311C244.221 106.311 244.41 106.288 244.579 106.242C244.752 106.197 244.889 106.124 244.989 106.023C245.094 105.923 245.146 105.793 245.146 105.634C245.146 105.483 245.108 105.365 245.03 105.278C244.953 105.192 244.832 105.126 244.668 105.08C244.508 105.039 244.301 105.009 244.046 104.991L244.258 104.068ZM248.988 100.384V100.227C248.988 99.6934 249.066 99.1989 249.221 98.7432C249.376 98.2829 249.599 97.8841 249.891 97.5469C250.182 97.2051 250.535 96.9408 250.95 96.7539C251.365 96.5625 251.83 96.4668 252.345 96.4668C252.864 96.4668 253.331 96.5625 253.746 96.7539C254.165 96.9408 254.521 97.2051 254.812 97.5469C255.109 97.8841 255.334 98.2829 255.489 98.7432C255.644 99.1989 255.722 99.6934 255.722 100.227V100.384C255.722 100.917 255.644 101.411 255.489 101.867C255.334 102.323 255.109 102.722 254.812 103.063C254.521 103.401 254.168 103.665 253.753 103.856C253.343 104.043 252.878 104.137 252.358 104.137C251.839 104.137 251.372 104.043 250.957 103.856C250.542 103.665 250.187 103.401 249.891 103.063C249.599 102.722 249.376 102.323 249.221 101.867C249.066 101.411 248.988 100.917 248.988 100.384ZM250.253 100.227V100.384C250.253 100.753 250.296 101.102 250.383 101.43C250.469 101.753 250.599 102.04 250.772 102.291C250.95 102.542 251.171 102.74 251.436 102.886C251.7 103.027 252.007 103.098 252.358 103.098C252.705 103.098 253.008 103.027 253.268 102.886C253.532 102.74 253.751 102.542 253.924 102.291C254.097 102.04 254.227 101.753 254.313 101.43C254.405 101.102 254.45 100.753 254.45 100.384V100.227C254.45 99.862 254.405 99.5179 254.313 99.1943C254.227 98.8662 254.095 98.5768 253.917 98.3262C253.744 98.071 253.525 97.8704 253.261 97.7246C253.001 97.5788 252.696 97.5059 252.345 97.5059C251.998 97.5059 251.693 97.5788 251.429 97.7246C251.169 97.8704 250.95 98.071 250.772 98.3262C250.599 98.5768 250.469 98.8662 250.383 99.1943C250.296 99.5179 250.253 99.862 250.253 100.227Z" fill="#A8CB34"/>
</svg>
